<?xml version="1.0" encoding="UTF-8"?>
<svg version="1.1" xmlns="http://www.w3.org/2000/svg" width="500" height="500">
<path d="M0 0 C60.09874923 0 60.09874923 0 72.5868988 12.44645691 C73.09122202 12.94780901 73.59554525 13.44916111 74.11515099 13.96570569 C75.77628625 15.61828461 77.43393877 17.2743096 79.09155273 18.93041992 C80.29287669 20.12710698 81.49439474 21.32359922 82.6960907 22.51991272 C85.93776261 25.74855602 89.17617492 28.98044861 92.41356921 32.21338058 C94.43736181 34.23423134 96.46173536 36.25449838 98.48628426 38.27459145 C104.82476346 44.59943061 111.16126334 50.9262427 117.49486297 57.25596827 C124.80051569 64.5571268 132.1126875 71.85167328 139.43051952 79.14062423 C145.09538336 84.78390492 150.75450174 90.43290482 156.40925366 96.08631784 C159.78420507 99.46022025 163.16155307 102.83163828 166.54488945 106.19713402 C169.7206069 109.3564257 172.88915287 112.52273444 176.05226326 115.69464684 C177.21510154 116.85825802 178.38051953 118.01929763 179.54866028 119.1775856 C181.14011363 120.75639656 182.72209024 122.34413061 184.30198669 123.93449402 C185.63452311 125.26483059 185.63452311 125.26483059 186.99397945 126.62204266 C188.90411241 128.88633387 189.78336273 130.0738753 190 133 C188.83035278 134.86706543 188.83035278 134.86706543 187.03173828 136.76367188 C186.38062073 137.46097412 185.72950317 138.15827637 185.05865479 138.87670898 C184.37929871 139.57739502 183.69994263 140.27808105 183 141 C182.39363708 141.64074463 181.78727417 142.28148926 181.16253662 142.94165039 C177.19023529 147.10800591 173.12823907 151.18825323 169.07470703 155.27539062 C167.59929498 156.76750546 166.12928897 158.26498388 164.66455078 159.76757812 C162.5357091 161.95095685 160.39108661 164.11763132 158.2421875 166.28125 C157.58999237 166.9561145 156.93779724 167.630979 156.26583862 168.32629395 C151.74940774 172.82188599 151.74940774 172.82188599 148.30151367 173.64135742 C145.36076816 172.82186676 144.05762222 171.64478835 141.93359375 169.45703125 C141.20076172 168.71259766 140.46792969 167.96816406 139.71289062 167.20117188 C138.96201172 166.41291016 138.21113281 165.62464844 137.4375 164.8125 C136.68275391 164.04357422 135.92800781 163.27464844 135.15039062 162.48242188 C131.55432922 158.79131039 128.19429985 155.04660724 125 151 C123.90597533 149.98634207 122.78012528 149.00593943 121.625 148.0625 C117.499898 144.53557663 113.65166703 140.76915104 109.8125 136.9375 C109.21840332 136.34783447 108.62430664 135.75816895 108.01220703 135.15063477 C105.31150597 132.44123153 102.71171819 129.71630093 100.2890625 126.75390625 C98.45068247 124.54220332 96.77431827 122.79806011 94.5625 121 C90.45568974 117.4966714 86.63094004 113.7484734 82.8125 109.9375 C82.21832275 109.34775391 81.62414551 108.75800781 81.01196289 108.15039062 C78.32537472 105.45514454 75.73815666 102.74695793 73.33203125 99.796875 C71.29854685 97.35805619 69.29647459 95.34938745 66.875 93.3125 C64.46381682 91.27190723 62.24183554 89.24183554 60 87 C59.67 167.19 59.34 247.38 59 330 C39.53 330 20.06 330 0 330 C0 221.1 0 112.2 0 0 Z " fill="#030303" transform="translate(55,82)"/>
<path d="M0 0 C0 108.9 0 217.8 0 330 C-19.47 330 -38.94 330 -59 330 C-59.33 250.14 -59.66 170.28 -60 88 C-88.05 116.05 -116.1 144.1 -145 173 C-150.62642578 173 -150.62642578 173 -154.0559082 169.59106445 C-154.81631912 168.84641434 -155.57673004 168.10176422 -156.36018372 167.33454895 C-157.1655809 166.51903061 -157.97097809 165.70351227 -158.80078125 164.86328125 C-160.0553437 163.61589424 -160.0553437 163.61589424 -161.33525085 162.3433075 C-163.10050697 160.58145441 -164.8594622 158.81326908 -166.61254883 157.03930664 C-169.30216615 154.32293664 -172.01736863 151.63422868 -174.73632812 148.94726562 C-176.446918 147.23337174 -178.15595621 145.51792748 -179.86328125 143.80078125 C-180.67879959 142.99538406 -181.49431793 142.18998688 -182.33454895 141.36018372 C-183.07919907 140.5997728 -183.82384918 139.83936188 -184.59106445 139.0559082 C-185.25104935 138.39194534 -185.91103424 137.72798248 -186.59101868 137.04389954 C-188.42875704 134.37803553 -188.438319 133.20182787 -188 130 C-186.13175392 127.35450268 -186.13175392 127.35450268 -183.45498657 124.46342468 C-182.96504758 123.92829075 -182.47510859 123.39315682 -181.97032297 122.84180671 C-180.32159467 121.0488448 -178.6547684 119.27385878 -176.98681641 117.4987793 C-175.7994811 116.21789013 -174.61283202 114.93636457 -173.42681885 113.6542511 C-162.48941762 101.87252927 -151.34431074 90.28222037 -140.1554203 78.7396574 C-131.9138418 70.23200686 -123.77894647 61.64548046 -115.76392996 52.92395085 C-110.0909688 46.76905417 -104.30473618 40.73482966 -98.43141687 34.7709325 C-94.94182559 31.2210006 -91.5159734 27.64292445 -88.20781326 23.92264366 C-87.56511982 23.21174023 -86.92242637 22.5008368 -86.26025736 21.76839083 C-85.09261996 20.47103492 -83.94000732 19.15980743 -82.81085908 17.82881767 C-58.33422348 -9.12114913 -38.4127573 0 0 0 Z " fill="#020202" transform="translate(451,82)"/>
<path d="M0 0 C3.97901368 0.54850045 5.79471872 2.42423518 8.58111572 5.22035217 C9.49534302 6.13045547 10.40957031 7.04055878 11.35150146 7.97824097 C12.35719523 8.99455186 13.36274459 10.01100565 14.36816406 11.02758789 C15.43213553 12.09240556 16.49676801 13.15656311 17.56201172 14.22010803 C20.45273647 17.10997113 23.33411055 20.0089986 26.21391773 22.90973592 C29.22479528 25.9393519 32.24415583 28.96048902 35.26263428 31.98252869 C40.97758597 37.70680916 46.68484655 43.43869486 52.38939643 49.17333931 C58.88405277 55.70151367 65.38721743 62.2211838 71.89111757 68.74014676 C85.27024726 82.15064435 98.63863253 95.57180637 112 109 C115.51759521 107.49816973 117.7609394 105.47511008 120.44030762 102.76655579 C121.32351181 101.87887512 122.206716 100.99119446 123.11668396 100.07661438 C124.08762872 99.09061832 125.05849714 98.10454707 126.02929688 97.1184082 C127.0573976 96.08155601 128.08597937 95.04518061 129.11500549 94.00924683 C131.32813344 91.77964056 133.5382582 89.54711397 135.74623108 87.31240273 C139.23580983 83.78147003 142.73460636 80.25977093 146.23522949 76.73979187 C156.18751625 66.72991218 166.12968411 56.71005622 176.05712891 46.67553711 C181.54149674 41.13217618 187.03471177 35.59774294 192.53786707 30.07303113 C196.0225857 26.57364015 199.49591656 23.06343593 202.96138763 19.54498827 C205.11585865 17.36285569 207.28065518 15.19120505 209.44859123 13.02245712 C210.45434606 12.01211857 211.45577917 10.99745733 212.45259285 9.97829628 C213.81007028 8.59162111 215.18444093 7.22154275 216.55969238 5.85249329 C217.32511604 5.07986302 218.0905397 4.30723276 218.87915802 3.51118946 C221 2 221 2 223.27751923 2.25921917 C224.13014721 2.62590568 224.13014721 2.62590568 225 3 C228.46448524 14.23959475 230.5880302 25.49399756 231.8125 37.1875 C231.90492226 38.06812859 231.99734451 38.94875717 232.09256744 39.85607147 C234.19767558 62.79978591 228.96309864 81.79998338 214.39892578 99.58154297 C201.00917282 115.63323664 185.99930427 130.23112921 170.875 144.625 C169.57074246 145.87064544 168.26650384 147.11631069 166.96228409 148.3619957 C158.21820028 156.69755065 149.37814069 164.92330377 140.4296875 173.0390625 C139.83158555 173.58162965 139.23348361 174.12419679 138.61725736 174.68320537 C135.19299247 177.78188975 131.7495749 180.85684644 128.27597463 183.90014803 C127.22967241 184.81890192 126.18731403 185.74216981 125.1492697 186.67024362 C123.73251974 187.93297462 122.29647839 189.17396159 120.85958862 190.41372681 C120.0613159 191.11102716 119.26304317 191.80832752 118.44058037 192.52675819 C115.40012242 194.36211253 113.49485827 194.38131454 110 194 C107.94189453 192.65478516 107.94189453 192.65478516 106.1328125 190.7890625 C105.47539062 190.12132812 104.81796875 189.45359375 104.140625 188.765625 C103.47546875 188.05921875 102.8103125 187.3528125 102.125 186.625 C101.43664062 185.92632812 100.74828125 185.22765625 100.0390625 184.5078125 C95 179.30877976 95 179.30877976 95 177 C94.34 177 93.68 177 93 177 C93 176.34 93 175.68 93 175 C92.44280273 174.76732422 91.88560547 174.53464844 91.31152344 174.29492188 C88.40076355 172.66430607 86.37818867 170.63760806 84.015625 168.28125 C83.08105469 167.34925781 82.14648438 166.41726563 81.18359375 165.45703125 C80.7026123 164.97186035 80.22163086 164.48668945 79.72607422 163.98681641 C78.24795152 162.49793661 76.75940089 161.02008349 75.26953125 159.54296875 C74.34011719 158.61097656 73.41070312 157.67898438 72.453125 156.71875 C71.59879883 155.86216797 70.74447266 155.00558594 69.86425781 154.12304688 C68 152 68 152 68 150 C67.34 150 66.68 150 66 150 C66 149.34 66 148.68 66 148 C65.43917725 147.76514893 64.87835449 147.53029785 64.30053711 147.28833008 C61.44161798 145.68729896 59.49414312 143.71861838 57.19140625 141.38671875 C56.27939453 140.46826172 55.36738281 139.54980469 54.42773438 138.60351562 C53.47252616 137.63163825 52.51744907 136.659632 51.5625 135.6875 C50.61179478 134.72675154 49.66062715 133.76646043 48.70898438 132.80664062 C46.94765314 131.02790738 45.18838719 129.24712492 43.43188477 127.46362305 C39.29363557 123.27136598 35.11443878 119.12217061 30.91796875 114.98828125 C29.49522513 113.579322 28.07249573 112.17034802 26.65063477 110.76049805 C25.66800215 109.78803116 24.68359867 108.81735068 23.69750977 107.84838867 C22.2663675 106.44137874 20.84204942 105.02743802 19.41796875 103.61328125 C18.57000732 102.77579346 17.7220459 101.93830566 16.84838867 101.07543945 C15 99 15 99 15 97 C14.34 97 13.68 97 13 97 C13 96.34 13 95.68 13 95 C12.43683578 94.74057114 11.87367157 94.48114227 11.29344177 94.21385193 C6.41877494 91.63383276 2.91598879 88.7330845 0 84 C-1.61235472 77.77187167 -1.04750514 71.11720386 -0.87890625 64.74609375 C-0.86209842 62.87568742 -0.84929753 61.00524118 -0.84031677 59.13478088 C-0.8061224 54.23632404 -0.7178687 49.34030892 -0.61798096 44.44281006 C-0.52554143 39.43551662 -0.48472997 34.42782452 -0.43945312 29.41992188 C-0.34323065 19.61221448 -0.18983845 9.80631109 0 0 Z " fill="#020202" transform="translate(140,218)"/>
<path d="M0 0 C10.58761644 -0.16230805 21.17493618 -0.2866286 31.76354408 -0.3626852 C36.6805381 -0.39919224 41.59668001 -0.44869534 46.51318359 -0.52807617 C51.25947799 -0.60422782 56.00495375 -0.64600932 60.75181198 -0.6641407 C62.56119041 -0.67705855 64.37052484 -0.70228554 66.17955399 -0.7401104 C68.71784906 -0.79106464 71.25277833 -0.79791884 73.79150391 -0.79467773 C74.53669281 -0.81984467 75.28188171 -0.8450116 76.0496521 -0.87094116 C79.15187124 -0.82818665 81.39832626 -0.52520733 83.76974106 1.54482555 C85.28065803 3.30681144 86.64111469 5.12009005 88 7 C89.23650855 8.16640186 90.50218477 9.30388881 91.8125 10.38671875 C96.42515108 14.31735642 100.71447275 18.53068638 105 22.8125 C105.77472656 23.57498047 106.54945313 24.33746094 107.34765625 25.12304688 C108.07855469 25.85201172 108.80945313 26.58097656 109.5625 27.33203125 C110.22378906 27.98921143 110.88507813 28.6463916 111.56640625 29.32348633 C113 31 113 31 113 33 C113.66 33 114.32 33 115 33 C115 33.66 115 34.32 115 35 C115.598125 35.268125 116.19625 35.53625 116.8125 35.8125 C118.97224808 36.98493467 120.35790256 38.19369282 122 40 C124.90444127 38.68812798 126.94924101 37.29109783 129.17626953 35.01904297 C129.77013458 34.41857147 130.36399963 33.81809998 130.9758606 33.19943237 C131.60515472 32.55354156 132.23444885 31.90765076 132.8828125 31.2421875 C133.53829071 30.57913605 134.19376892 29.91608459 134.86911011 29.23294067 C136.95927787 27.11836474 139.04287268 24.99749166 141.125 22.875 C143.8719418 20.07507471 146.62527735 17.28167585 149.3828125 14.4921875 C150.33282639 13.51727859 150.33282639 13.51727859 151.30203247 12.52267456 C152.83046707 10.97705447 154.41067024 9.48293112 156 8 C156.66 8 157.32 8 158 8 C158.2475 7.4225 158.495 6.845 158.75 6.25 C160.27366577 3.50740162 161.50707465 1.94406818 164 0 C166.79565002 -0.3741618 169.19080813 -0.50744226 171.98144531 -0.45410156 C172.7818222 -0.45468567 173.5821991 -0.45526978 174.40682983 -0.45587158 C177.04770545 -0.45308875 179.68744701 -0.42198834 182.328125 -0.390625 C184.16086205 -0.3831633 185.99360709 -0.37747003 187.82635498 -0.37347412 C192.64670902 -0.35821221 197.46657985 -0.31892562 202.28674316 -0.2746582 C207.20672061 -0.23371751 212.12677625 -0.21546567 217.046875 -0.1953125 C226.6981288 -0.15243189 236.3490242 -0.08417381 246 0 C246 4 246 4 244.51879883 5.93530273 C243.83841553 6.59473877 243.15803223 7.2541748 242.45703125 7.93359375 C241.71259766 8.66513672 240.96816406 9.39667969 240.20117188 10.15039062 C239.41291016 10.90513672 238.62464844 11.65988281 237.8125 12.4375 C236.65911133 13.56381836 236.65911133 13.56381836 235.48242188 14.71289062 C234.03552782 16.12500954 232.58455447 17.5329698 231.12817383 18.93530273 C228.72652642 21.26531675 226.36435142 23.63213926 224 26 C190.66666667 59.33333333 157.33333333 92.66666667 124 126 C119.62635723 124.58620188 117.12106294 122.50163246 113.88102722 119.2754364 C113.14570494 118.54925077 113.14570494 118.54925077 112.39552766 117.80839473 C110.75934339 116.18882269 109.13403893 114.55876269 107.50854492 112.9284668 C106.33601344 111.76327646 105.16286117 110.59871054 103.98913574 109.4347229 C100.80666525 106.27446715 97.63390103 103.10463504 94.46346831 99.93230796 C91.8167077 97.28542769 89.16562026 94.64290183 86.51463586 92.00025302 C80.26286418 85.7677136 74.01929931 79.52703426 67.78051758 73.28149414 C61.34023059 66.83455932 54.88531159 60.40254222 48.42319983 53.97749013 C42.87701294 48.46196136 37.34049951 42.93685126 31.81156999 37.40402347 C28.50851651 34.09889926 25.20177224 30.79768838 21.88548851 27.50583458 C18.76926125 24.4118087 15.66524656 21.30603667 12.57030487 18.19072342 C11.43137022 17.04836754 10.28813554 15.91028067 9.14038277 14.7767849 C7.57645982 13.23095889 6.0286762 11.67059223 4.48405457 10.10551453 C3.61300174 9.23517421 2.74194891 8.36483389 1.84450054 7.46811962 C-0.24056591 4.67809961 -0.43675682 3.39879993 0 0 Z " fill="#010101" transform="translate(131,82)"/>
<path d="M0 0 C2.89554332 1.21300596 4.59900152 2.94995735 6.83479309 5.15423584 C7.75867325 6.05897644 8.68255341 6.96371704 9.63442993 7.89587402 C10.63370771 8.8905666 11.63236565 9.88588222 12.63044739 10.8817749 C13.65823586 11.89992261 14.68624914 12.91784344 15.71447754 13.93554688 C17.86575276 16.06887145 20.01074757 18.20829506 22.1521759 20.35150146 C24.89901086 23.09864184 27.66592943 25.8245402 30.43858051 28.54558945 C32.56690895 30.64059392 34.68149372 32.74906039 36.79242516 34.8615799 C37.80712427 35.87273561 38.82669927 36.87902248 39.85114479 37.88030243 C41.28041132 39.28023411 42.68900753 40.70117602 44.09651184 42.12298584 C44.90385269 42.92605164 45.71119354 43.72911743 46.54299927 44.55651855 C48.14216614 46.8973999 48.14216614 46.8973999 47.98123169 49.5821991 C47.03189446 52.20166824 46.01846483 53.47140269 44.00935364 55.38568115 C43.05258728 56.31549805 43.05258728 56.31549805 42.07649231 57.26409912 C41.39691467 57.90621338 40.71733704 58.54832764 40.01716614 59.2098999 C38.6337897 60.55042482 37.25225201 61.8928501 35.87263489 63.23724365 C35.21698547 63.87387939 34.56133606 64.51051514 33.88581848 65.16644287 C31.92205284 67.11591059 30.10212099 69.14802907 28.32966614 71.2723999 C25.12770358 75.06247803 21.48925367 78.25090065 17.77107239 81.52630615 C12.64201568 86.15236472 7.62578157 91.02839587 3.10310364 96.25286865 C1.14216614 97.8973999 1.14216614 97.8973999 -0.68710327 97.76623535 C-3.62330854 96.59101847 -5.29857925 94.86070566 -7.55046082 92.64056396 C-8.47434097 91.73582336 -9.39822113 90.83108276 -10.35009766 89.89892578 C-11.34937543 88.9042332 -12.34803337 87.90891759 -13.34611511 86.9130249 C-14.37390359 85.89487719 -15.40191687 84.87695636 -16.43014526 83.85925293 C-18.58142049 81.72592836 -20.72641529 79.58650474 -22.86784363 77.44329834 C-25.61467859 74.69615796 -28.38159716 71.97025961 -31.15424824 69.24921036 C-33.28257667 67.15420588 -35.39716145 65.04573942 -37.50809288 62.93321991 C-38.52279199 61.92206419 -39.54236699 60.91577733 -40.56681252 59.91449738 C-41.99607905 58.51456569 -43.40467525 57.09362378 -44.81217957 55.67181396 C-45.61952042 54.86874817 -46.42686127 54.06568237 -47.25866699 53.23828125 C-48.85783386 50.8973999 -48.85783386 50.8973999 -48.71907043 48.23477173 C-47.62829321 45.27443302 -46.162432 43.76232869 -43.89299011 41.5770874 C-43.09312683 40.79462646 -42.29326355 40.01216553 -41.46916199 39.20599365 C-40.62804871 38.40290771 -39.78693542 37.59982178 -38.92033386 36.7723999 C-37.26335686 35.16772164 -35.60832002 33.56103687 -33.95549011 31.9520874 C-33.21822693 31.24552002 -32.48096375 30.53895264 -31.72135925 29.81097412 C-29.6855212 27.83729658 -29.6855212 27.83729658 -27.85783386 24.8973999 C-27.19783386 24.8973999 -26.53783386 24.8973999 -25.85783386 24.8973999 C-25.85783386 24.2373999 -25.85783386 23.5773999 -25.85783386 22.8973999 C-24.49455261 21.55755615 -24.49455261 21.55755615 -22.54533386 19.9598999 C-16.04812503 14.445365 -9.9436363 8.36134152 -4.27580261 1.9989624 C-1.85783386 -0.1026001 -1.85783386 -0.1026001 0 0 Z " fill="#010101" transform="translate(253.8578338623047,219.10260009765625)"/>
<path d="M0 0 C3.97901368 0.54850045 5.79471872 2.42423518 8.58111572 5.22035217 C9.49534302 6.13045547 10.40957031 7.04055878 11.35150146 7.97824097 C12.35719523 8.99455186 13.36274459 10.01100565 14.36816406 11.02758789 C15.43213553 12.09240556 16.49676801 13.15656311 17.56201172 14.22010803 C20.45273647 17.10997113 23.33411055 20.0089986 26.21391773 22.90973592 C29.22479528 25.9393519 32.24415583 28.96048902 35.26263428 31.98252869 C40.97758597 37.70680916 46.68484655 43.43869486 52.38939643 49.17333931 C58.88405277 55.70151367 65.38721743 62.2211838 71.89111757 68.74014676 C85.27024726 82.15064435 98.63863253 95.57180637 112 109 C115.51568945 107.49665672 117.77701757 105.46992736 120.46722412 102.77328491 C121.35620895 101.88704941 122.24519379 101.0008139 123.16111755 100.08772278 C124.13842926 99.10333337 125.11564467 98.11884835 126.09277344 97.13427734 C127.12740339 96.09908313 128.16247417 95.06432935 129.19795227 94.02998352 C132.00584082 91.22266888 134.80751943 88.40922972 137.60813046 85.59465742 C140.53671011 82.65357681 143.47095302 79.7181575 146.40460205 76.78213501 C151.95816854 71.22235189 157.50661702 65.6574901 163.05324864 60.09078944 C169.36849971 53.75318508 175.68942951 47.42125757 182.01084471 41.0898025 C195.01356242 28.06617865 208.00912512 15.03543639 221 2 C221 5 221 5 219.65525532 6.71388817 C219.02018149 7.34619661 218.38510767 7.97850506 217.73078918 8.62997437 C217.00598358 9.35890396 216.28117798 10.08783356 215.53440857 10.83885193 C214.72874954 11.63372513 213.92309052 12.42859833 213.09301758 13.24755859 C212.2524884 14.08852585 211.41195923 14.9294931 210.54595947 15.79594421 C208.2349471 18.10522119 205.91739726 20.40769021 203.59682679 22.70735502 C201.16879026 25.11664487 198.74923946 27.53442569 196.32878113 29.95132446 C191.73664234 34.53412589 187.13691228 39.10922925 182.53442353 43.68163359 C177.31651771 48.86615455 172.10699069 54.05905896 166.8982178 59.25275302 C157.98643523 68.13845429 149.06838614 77.01781578 140.14323425 85.89009094 C136.42344166 89.58805787 132.70625345 93.28846228 129 97 C124 102 119 107 114 112 C110.47030345 110.49369889 108.21026271 108.45277702 105.51499939 105.74205017 C104.62193588 104.84884567 103.72887238 103.95564117 102.80874634 103.03536987 C101.82675794 102.04311422 100.84485782 101.05077119 99.86303711 100.05834961 C98.82343824 99.0149116 97.78338249 97.97192862 96.74290466 96.92936707 C94.50505879 94.68520256 92.27035728 92.43796916 90.03800774 90.18833733 C86.50961962 86.63291083 82.97362136 83.08511958 79.43641663 79.53846741 C71.93085253 72.0107033 64.43375963 64.47452795 56.9375 56.9375 C48.84156439 48.79754948 40.74421193 40.6590403 32.63707739 32.53024107 C29.11930975 29.00249345 25.60647997 25.46992233 22.09731472 21.93361843 C19.91623473 19.7376482 17.73104476 17.54580384 15.54470253 15.35507393 C14.52988786 14.33650675 13.51680782 13.31620803 12.50557709 12.29408264 C11.12766973 10.90179693 9.74302248 9.51619105 8.35801697 8.13096619 C7.58429717 7.35280517 6.81057737 6.57464415 6.01341152 5.77290249 C4.02862241 3.7930887 4.02862241 3.7930887 1 3 C0.96846158 13.03205937 0.97467991 23.06332819 1.02846622 33.09531403 C1.05227194 37.75419738 1.06330442 42.4123668 1.04467773 47.07128906 C1.02716293 51.57159952 1.04381222 56.07063047 1.08367729 60.57078552 C1.0929373 62.28346045 1.09009992 63.99624689 1.07469368 65.70887756 C0.67480401 76.54516717 0.67480401 76.54516717 5.40405273 85.89648438 C6.59152546 86.94379961 7.7893213 87.97959922 9 89 C10.4610948 90.94081549 11.71139804 92.93823686 13 95 C7.42142642 92.43015809 3.25363034 89.28112707 0 84 C-1.61235472 77.77187167 -1.04750514 71.11720386 -0.87890625 64.74609375 C-0.86209842 62.87568742 -0.84929753 61.00524118 -0.84031677 59.13478088 C-0.8061224 54.23632404 -0.7178687 49.34030892 -0.61798096 44.44281006 C-0.52554143 39.43551662 -0.48472997 34.42782452 -0.43945312 29.41992188 C-0.34323065 19.61221448 -0.18983845 9.80631109 0 0 Z " fill="#C7C7C7" transform="translate(140,218)"/>
<path d="M0 0 C2.31 1.98 4.62 3.96 7 6 C8.175625 6.94875 9.35125 7.8975 10.5625 8.875 C13.09179567 11.02771165 15.01072493 13.2348074 16.9375 15.9375 C19.51031264 19.52589658 22.34311575 22.18787087 25.71875 25.01171875 C30.3868999 29.0803631 34.65293984 33.59445921 39 38 C40.66537518 39.66795716 42.33202048 41.33464722 44 43 C44.76828125 43.76957031 45.5365625 44.53914063 46.328125 45.33203125 C48.45868567 47.45947706 50.59496864 49.58069249 52.734375 51.69921875 C54.07296143 53.02860076 55.41150224 54.35802871 56.75 55.6875 C57.43449219 56.36361328 58.11898437 57.03972656 58.82421875 57.73632812 C59.47519531 58.38408203 60.12617188 59.03183594 60.796875 59.69921875 C61.38823242 60.28533936 61.97958984 60.87145996 62.58886719 61.4753418 C64 63 64 63 65 65 C66.485 65.495 66.485 65.495 68 66 C69.17359316 67.67656165 70.34428961 69.35527011 71.49609375 71.046875 C73.61760198 73.80208049 76.1506928 75.87349246 78.80859375 78.09765625 C82.05700556 80.9175788 85.02209288 83.99970967 88.01953125 87.08203125 C90.04935277 89.16317067 90.04935277 89.16317067 93 91 C89.94938403 91.30078364 88.46855225 91.33613652 85.93530273 89.51879883 C85.27473877 88.83841553 84.6141748 88.15803223 83.93359375 87.45703125 C82.8343457 86.34038086 82.8343457 86.34038086 81.71289062 85.20117188 C80.96201172 84.41291016 80.21113281 83.62464844 79.4375 82.8125 C78.68275391 82.04357422 77.92800781 81.27464844 77.15039062 80.48242188 C73.55432922 76.79131039 70.19429985 73.04660724 67 69 C65.90597533 67.98634207 64.78012528 67.00593943 63.625 66.0625 C59.499898 62.53557663 55.65166703 58.76915104 51.8125 54.9375 C51.21840332 54.34783447 50.62430664 53.75816895 50.01220703 53.15063477 C47.31150597 50.44123153 44.71171819 47.71630093 42.2890625 44.75390625 C40.45068247 42.54220332 38.77431827 40.79806011 36.5625 39 C32.45568974 35.4966714 28.63094004 31.7484734 24.8125 27.9375 C24.21832275 27.34775391 23.62414551 26.75800781 23.01196289 26.15039062 C20.32537472 23.45514454 17.73815666 20.74695793 15.33203125 17.796875 C13.29854685 15.35805619 11.29647459 13.34938745 8.875 11.3125 C6.46381682 9.27190723 4.24183554 7.24183554 2 5 C1.67 85.19 1.34 165.38 1 248 C0.67 248 0.34 248 0 248 C0 166.16 0 84.32 0 0 Z " fill="#8A8A8A" transform="translate(113,164)"/>
<path d="M0 0 C0.33 0 0.66 0 1 0 C1 81.18 1 162.36 1 246 C0.67 246 0.34 246 0 246 C-0.33 166.47 -0.66 86.94 -1 5 C-29.05 33.05 -57.1 61.1 -86 90 C-86.66 89.67 -87.32 89.34 -88 89 C-82.51255178 82.57851804 -76.92612123 76.4255918 -70.4375 71 C-66.48294737 67.59954016 -63.01606199 63.84001267 -59.5 60 C-54.4407004 54.47819495 -49.19557912 49.26132684 -43.6875 44.1875 C-38.45981828 39.37130504 -33.55108037 34.49472751 -28.875 29.13671875 C-24.94675735 24.6601589 -20.73129704 20.59405229 -16.1875 16.75 C-11.72827718 12.93653548 -7.94207716 8.57734262 -4.1015625 4.16015625 C-3.06128906 3.09087891 -3.06128906 3.09087891 -2 2 C-1.34 2 -0.68 2 0 2 C0 1.34 0 0.68 0 0 Z " fill="#7E7E7E" transform="translate(392,165)"/>
<path d="M0 0 C2.89554332 1.21300596 4.59900152 2.94995735 6.83479309 5.15423584 C7.75867325 6.05897644 8.68255341 6.96371704 9.63442993 7.89587402 C10.63370771 8.8905666 11.63236565 9.88588222 12.63044739 10.8817749 C13.65823586 11.89992261 14.68624914 12.91784344 15.71447754 13.93554688 C17.86575276 16.06887145 20.01074757 18.20829506 22.1521759 20.35150146 C24.89901086 23.09864184 27.66592943 25.8245402 30.43858051 28.54558945 C32.56690895 30.64059392 34.68149372 32.74906039 36.79242516 34.8615799 C37.80712427 35.87273561 38.82669927 36.87902248 39.85114479 37.88030243 C41.28041132 39.28023411 42.68900753 40.70117602 44.09651184 42.12298584 C44.90385269 42.92605164 45.71119354 43.72911743 46.54299927 44.55651855 C48.14216614 46.8973999 48.14216614 46.8973999 47.98123169 49.5821991 C47.03189446 52.20166824 46.01846483 53.47140269 44.00935364 55.38568115 C43.05258728 56.31549805 43.05258728 56.31549805 42.07649231 57.26409912 C41.39691467 57.90621338 40.71733704 58.54832764 40.01716614 59.2098999 C38.6337897 60.55042482 37.25225201 61.8928501 35.87263489 63.23724365 C35.21698547 63.87387939 34.56133606 64.51051514 33.88581848 65.16644287 C31.92205284 67.11591059 30.10212099 69.14802907 28.32966614 71.2723999 C25.12770358 75.06247803 21.48925367 78.25090065 17.77107239 81.52630615 C12.64201568 86.15236472 7.62578157 91.02839587 3.10310364 96.25286865 C1.14216614 97.8973999 1.14216614 97.8973999 -0.68809509 97.77119446 C-3.64244377 96.58142276 -5.29247317 94.82181576 -7.53459167 92.56121826 C-8.45524414 91.6403392 -9.37589661 90.71946014 -10.32444763 89.77067566 C-11.32011305 88.75969086 -12.31561293 87.748543 -13.31095886 86.73724365 C-14.33591712 85.7066885 -15.361541 84.67679496 -16.38780212 83.64753723 C-19.08400403 80.93989398 -21.77107459 78.22336218 -24.4563446 75.50488281 C-27.19930116 72.73121018 -29.9507951 69.96603561 -32.70158386 67.20013428 C-38.09539406 61.77417246 -43.4795862 56.33879248 -48.85783386 50.8973999 C-45.85783386 50.8973999 -45.85783386 50.8973999 -43.78869629 52.60577393 C-42.99593796 53.40519409 -42.20317963 54.20461426 -41.38639832 55.02825928 C-40.03533745 56.37966003 -40.03533745 56.37966003 -38.65698242 57.75836182 C-37.67819908 58.75246611 -36.69958052 59.74673267 -35.72111511 60.7411499 C-34.71714674 61.75071287 -33.7125144 62.75961595 -32.70724487 63.7678833 C-30.06200028 66.42458732 -27.42588742 69.09017689 -24.79154968 71.75769043 C-22.10228485 74.47763244 -19.40451715 77.18911133 -16.70744324 79.90130615 C-11.41586166 85.22507124 -6.13389459 90.55824791 -0.85783386 95.8973999 C4.94052509 91.08302553 10.26498399 85.90491558 15.57575989 80.5614624 C16.45369705 79.68211029 17.33163422 78.80275818 18.23617554 77.89675903 C21.01971025 75.10765932 23.79973382 72.31508972 26.57966614 69.5223999 C28.47433279 67.6221457 30.36976244 65.72265337 32.26521301 63.82318115 C36.89351775 59.18389386 41.51895034 54.54175823 46.14216614 49.8973999 C44.64943939 46.43428487 42.6700061 44.15640776 40.03132629 41.48016357 C39.18349579 40.61634567 38.33566528 39.75252777 37.46214294 38.86253357 C36.54444122 37.93946915 35.6267395 37.01640472 34.68122864 36.06536865 C33.72952344 35.10469419 32.77789492 34.14394377 31.82633972 33.18312073 C29.83441104 31.17473198 27.83815681 29.17075224 25.83943176 27.16912842 C23.27622478 24.60051834 20.7295921 22.01611389 18.18657875 19.42753124 C16.22876036 17.44002323 14.25983634 15.46381133 12.28762436 13.49059486 C10.88394954 12.08065747 9.49193562 10.65914219 8.1000824 9.23753357 C7.24594757 8.38947647 6.39181274 7.54141937 5.51179504 6.66766357 C4.76281952 5.9136174 4.01384399 5.15957123 3.24217224 4.38267517 C1.29976567 2.70462482 1.29976567 2.70462482 -0.85011292 2.90222168 C-3.52486746 4.22803216 -5.2472569 5.92811107 -7.35099792 8.04998779 C-8.23160889 8.93082535 -9.11221985 9.8116629 -10.01951599 10.7191925 C-10.97099211 11.68598782 -11.92230254 12.65294622 -12.87345886 13.62005615 C-13.85357642 14.60577088 -14.83435989 15.59082388 -15.81578064 16.57524109 C-18.3936187 19.16451839 -20.96231966 21.76267872 -23.52922058 24.36279297 C-26.15152791 27.01582096 -28.78237765 29.6603477 -31.41252136 32.30560303 C-36.56935681 37.49458637 -41.71656902 42.69298382 -46.85783386 47.8973999 C-46.85783386 44.8973999 -46.85783386 44.8973999 -45.32902527 43.04388428 C-44.62954773 42.36648193 -43.93007019 41.68907959 -43.20939636 40.9911499 C-42.45142761 40.24736084 -41.69345886 39.50357178 -40.91252136 38.73724365 C-40.11072449 37.96509521 -39.30892761 37.19294678 -38.48283386 36.3973999 C-36.91038364 34.86834522 -35.33997988 33.33718243 -33.77189636 31.8036499 C-32.71929626 30.78754639 -32.71929626 30.78754639 -31.64543152 29.75091553 C-29.67874258 27.82195889 -29.67874258 27.82195889 -27.85783386 24.8973999 C-27.19783386 24.8973999 -26.53783386 24.8973999 -25.85783386 24.8973999 C-25.85783386 24.2373999 -25.85783386 23.5773999 -25.85783386 22.8973999 C-24.49455261 21.55755615 -24.49455261 21.55755615 -22.54533386 19.9598999 C-16.04812503 14.445365 -9.9436363 8.36134152 -4.27580261 1.9989624 C-1.85783386 -0.1026001 -1.85783386 -0.1026001 0 0 Z " fill="#A0A0A0" transform="translate(253.8578338623047,219.10260009765625)"/>
<path d="M0 0 C-1.51069397 3.53380833 -3.5654229 5.82572158 -6.26226807 8.54315186 C-7.15666092 9.448965 -8.05105377 10.35477814 -8.97254944 11.28804016 C-9.96628392 12.28426512 -10.96013868 13.28037011 -11.95410156 14.27636719 C-12.99922189 15.33074787 -14.04394579 16.38552163 -15.08830261 17.44065857 C-17.92430551 20.30286737 -20.76692646 23.15841103 -23.61161137 26.01198864 C-25.388512 27.79475503 -27.16423399 29.57868724 -28.93959808 31.3629837 C-34.49434537 36.94506423 -40.05307268 42.52313536 -45.61763883 48.09542823 C-52.04222359 54.52898321 -58.45350923 60.97541301 -64.85357118 67.43336177 C-69.80189432 72.42488275 -74.76165287 77.40484875 -79.7302835 82.37615514 C-82.69775844 85.34572792 -85.66015634 88.31997844 -88.61078644 91.3062973 C-91.38512869 94.11354175 -94.17337161 96.90618471 -96.97298622 99.68821907 C-97.99809649 100.7117856 -99.0180894 101.74050674 -100.03251457 102.77466393 C-101.41768273 104.18518238 -102.82327436 105.57555768 -104.22979736 106.96478271 C-105.01072376 107.74864223 -105.79165016 108.53250175 -106.596241 109.34011459 C-109.62124359 111.42899191 -111.39495123 111.4308245 -115 111 C-117.05810547 109.62304688 -117.05810547 109.62304688 -118.8671875 107.71875 C-119.52460938 107.04199219 -120.18203125 106.36523438 -120.859375 105.66796875 C-121.52453125 104.95253906 -122.1896875 104.23710937 -122.875 103.5 C-123.56335938 102.78457031 -124.25171875 102.06914062 -124.9609375 101.33203125 C-126.65494516 99.56743993 -128.33338493 97.79042076 -130 96 C-129.505 95.01 -129.505 95.01 -129 94 C-125.69346646 95.41088411 -123.8452183 97.05531369 -121.5625 99.8125 C-118.83435639 103.0404113 -116.03297715 106.05893125 -113 109 C-109.51345524 107.5158627 -107.35808928 105.53785948 -104.75 102.8125 C-101.98847167 99.97912703 -99.22684429 97.28172938 -96.1875 94.75 C-91.33141846 90.5931942 -87.14722108 85.82815667 -82.84765625 81.11328125 C-79.66629067 77.62461869 -76.45085133 74.2257958 -73 71 C-72.34 71 -71.68 71 -71 71 C-70.72714424 70.40238232 -70.45428848 69.80476463 -70.17316437 69.18903732 C-69.03128985 67.05838454 -67.92700991 65.67565701 -66.22937012 63.97540283 C-65.66576279 63.40615585 -65.10215546 62.83690887 -64.52146912 62.25041199 C-63.90530228 61.63829361 -63.28913544 61.02617523 -62.65429688 60.39550781 C-62.00372818 59.74143448 -61.35315948 59.08736115 -60.68287659 58.41346741 C-58.5331694 56.25496401 -56.37623661 54.10385062 -54.21875 51.953125 C-52.72395008 50.45697815 -51.22944718 48.96053449 -49.73522949 47.46380615 C-46.604562 44.33019053 -43.47030605 41.20022043 -40.33349609 38.07275391 C-36.3046713 34.05534308 -32.2849167 30.02899519 -28.26778412 25.999897 C-25.18485589 22.90975865 -22.09720091 19.82437888 -19.0080719 16.74044037 C-17.52337123 15.25707752 -16.04016487 13.77221751 -14.55845642 12.28586578 C-12.49232635 10.21468233 -10.41993867 8.14997563 -8.34570312 6.08691406 C-7.72953629 5.46669876 -7.11336945 4.84648346 -6.47853088 4.20747375 C-2.22853016 0 -2.22853016 0 0 0 Z " fill="#B7B7B7" transform="translate(365,301)"/>
<path d="M0 0 C0 3 0 3 -1.3894043 4.72998047 C-2.02789307 5.35275879 -2.66638184 5.97553711 -3.32421875 6.6171875 C-4.02353516 7.30683594 -4.72285156 7.99648437 -5.44335938 8.70703125 C-6.18392578 9.42246094 -6.92449219 10.13789062 -7.6875 10.875 C-8.40873047 11.58269531 -9.12996094 12.29039063 -9.87304688 13.01953125 C-11.23317274 14.35357251 -12.59636359 15.6845014 -13.96362305 17.01123047 C-16.32898247 19.32129136 -18.66342095 21.66082544 -21 24 C-54.33333333 57.33333333 -87.66666667 90.66666667 -121 124 C-121 120.33500729 -119.86426866 119.51236155 -117.37478638 117.00152588 C-116.84029877 116.4778241 -116.30581116 115.95412231 -115.75512695 115.41455078 C-115.19745132 114.85643707 -114.6397757 114.29832336 -114.06520081 113.72329712 C-112.21324768 111.87343961 -110.35087641 110.03444929 -108.48828125 108.1953125 C-107.19923172 106.91185986 -105.91084421 105.62774201 -104.62309265 104.34298706 C-101.22358197 100.95494822 -97.81516889 97.57600341 -94.40484619 94.19885254 C-90.95010786 90.77464965 -87.5036957 87.34209052 -84.05664062 83.91015625 C-78.47768822 78.35758174 -72.89370521 72.81012809 -67.30285645 67.26953125 C-64.19380973 64.18772108 -61.09344043 61.09747258 -58 58 C-51 51 -44 44 -37 37 C-36.17121338 36.17048828 -35.34242676 35.34097656 -34.48852539 34.48632812 C-32.08991673 32.08983734 -29.68461576 29.70028492 -27.27734375 27.3125 C-25.49732817 25.54173468 -23.7173822 23.77089938 -21.9375 22 C-21.03966797 21.11054687 -20.14183594 20.22109375 -19.21679688 19.3046875 C-18.34990234 18.44101563 -17.48300781 17.57734375 -16.58984375 16.6875 C-15.80472412 15.90761719 -15.01960449 15.12773438 -14.21069336 14.32421875 C-11.98542429 11.98467579 -10.00285708 9.53024522 -8 7 C-6.61568802 5.69399764 -5.20008119 4.42006901 -3.75 3.1875 C-2.69039062 2.28064453 -2.69039062 2.28064453 -1.609375 1.35546875 C-1.07828125 0.90816406 -0.5471875 0.46085937 0 0 Z " fill="#9D9D9D" transform="translate(376,84)"/>
<path d="M0 0 C5.14711795 4.30683215 9.96036802 8.8217389 14.69189453 13.57836914 C15.79328766 14.67954323 15.79328766 14.67954323 16.91693115 15.80296326 C19.32460517 18.21132947 21.72872396 20.62321138 24.1328125 23.03515625 C25.8145492 24.71876053 27.49650867 26.4021423 29.17868042 28.08531189 C33.59464567 32.50508332 38.00760118 36.92784788 42.41992188 41.35125732 C46.90704629 45.84860737 51.3969957 50.34313507 55.88671875 54.83789062 C63.13724565 62.09719534 70.38603695 69.3582277 77.63259888 76.62149048 C80.36134385 79.35643361 83.09073262 82.09070074 85.82305908 84.82206726 C88.07329171 87.0733251 90.3073227 89.33979286 92.5390625 91.609375 C94.23424724 93.32304306 95.92956321 95.03658131 97.625 96.75 C98.48351562 97.62527344 99.34203125 98.50054687 100.2265625 99.40234375 C101.0515625 100.23378906 101.8765625 101.06523437 102.7265625 101.921875 C103.47502441 102.68081055 104.22348633 103.43974609 104.99462891 104.22167969 C106.97054169 106.20842189 106.97054169 106.20842189 110 107 C110.66666667 108.33333333 111.33333333 109.66666667 112 111 C113.64429829 112.68873879 115.31384218 114.35305515 117 116 C118.71123624 117.96699166 120.35378517 119.97750749 122 122 C118.26403396 120.43963621 115.88788162 118.13936991 113.03924561 115.29321289 C112.55396873 114.81105599 112.06869185 114.3288991 111.56870961 113.83213139 C109.94564035 112.21703262 108.3298055 110.59488733 106.71386719 108.97265625 C105.55114475 107.81264401 104.38799729 106.65305766 103.22445679 105.49386597 C100.06720423 102.34573408 96.91631427 99.19130502 93.76679134 96.03544235 C90.47327108 92.73686288 87.17487893 89.44316095 83.8772583 86.14868164 C78.34230184 80.61736402 72.81157677 75.0818417 67.28320312 69.54394531 C60.88397734 63.1338244 54.47756371 56.73095495 48.06738925 50.33178425 C42.56898177 44.84243914 37.07446444 39.34922307 31.58320737 33.85272503 C28.30115977 30.56755332 25.01776143 27.28376231 21.73085785 24.00344849 C18.6434452 20.9217938 15.56092918 17.83532494 12.48219681 14.74499893 C11.34870189 13.60884956 10.21348318 12.47441709 9.07646561 11.34179306 C7.53059656 9.80134975 5.99095838 8.25494361 4.45281982 6.70678711 C3.15535387 5.40819008 3.15535387 5.40819008 1.83167648 4.08335876 C0 2 0 2 0 0 Z " fill="#CBCBCB" transform="translate(131,85)"/>
<path d="M0 0 C0.99 0.495 0.99 0.495 2 1 C-24.4 27.4 -50.8 53.8 -78 81 C-78.66 80.67 -79.32 80.34 -80 80 C-74.51255178 73.57851804 -68.92612123 67.4255918 -62.4375 62 C-58.48294737 58.59954016 -55.01606199 54.84001267 -51.5 51 C-46.4407004 45.47819495 -41.19557912 40.26132684 -35.6875 35.1875 C-30.45981828 30.37130504 -25.55108037 25.49472751 -20.875 20.13671875 C-16.2344921 14.84847329 -11.12305655 10.16664972 -5.80078125 5.578125 C-3.7757781 3.80350185 -1.86454143 1.94223065 0 0 Z " fill="#9C9C9C" transform="translate(384,174)"/>
<path d="M0 0 C0.495 1.485 0.495 1.485 1 3 C-4.1383103 8.29037349 -9.29994969 13.55713229 -14.47851562 18.80810547 C-16.23756702 20.59733984 -17.99119707 22.39192089 -19.73925781 24.19189453 C-22.25221847 26.77759128 -24.78401821 29.34346297 -27.3203125 31.90625 C-28.09867462 32.71557983 -28.87703674 33.52490967 -29.6789856 34.35876465 C-35.12936257 39.81247809 -35.12936257 39.81247809 -39.30078125 40.7109375 C-42.39387604 39.89625841 -43.67552559 39.02576254 -45.8671875 36.71875 C-46.52460938 36.04199219 -47.18203125 35.36523438 -47.859375 34.66796875 C-48.52453125 33.95253906 -49.1896875 33.23710937 -49.875 32.5 C-50.56335938 31.78457031 -51.25171875 31.06914062 -51.9609375 30.33203125 C-53.65494516 28.56743993 -55.33338493 26.79042076 -57 25 C-56.67 24.34 -56.34 23.68 -56 23 C-52.69346646 24.41088411 -50.8452183 26.05531369 -48.5625 28.8125 C-45.83435639 32.0404113 -43.03297715 35.05893125 -40 38 C-36.51345524 36.5158627 -34.35808928 34.53785948 -31.75 31.8125 C-28.98847167 28.97912703 -26.22684429 26.28172938 -23.1875 23.75 C-18.33246156 19.59408709 -14.14882011 14.83190767 -9.85546875 10.11328125 C-6.67891189 6.62758579 -3.37272697 3.29607408 0 0 Z " fill="#AEAEAE" transform="translate(292,372)"/>
<path d="M0 0 C0.99 0.33 1.98 0.66 3 1 C-13 17 -29 33 -45 49 C-45.66 48.67 -46.32 48.34 -47 48 C-45.80526513 44.4157954 -43.94005971 43.14895742 -41.09347534 40.79388428 C-37.11124323 37.38153763 -33.47963719 33.60063429 -29.78515625 29.8828125 C-28.92941513 29.02565643 -28.07367401 28.16850037 -27.19200134 27.28536987 C-24.47979535 24.56760046 -21.7711017 21.84636109 -19.0625 19.125 C-17.21572631 17.27320658 -15.36872347 15.42164166 -13.52148438 13.5703125 C-9.01166799 9.04951565 -4.50472431 4.52587054 0 0 Z " fill="#212121" transform="translate(252,221)"/>
<path d="M0 0 C1.66853111 1.43016952 3.33621008 2.86118531 5 4.296875 C6.25609155 5.36651546 7.52529254 6.42113971 8.8125 7.453125 C12.00046896 10.04334978 14.54794861 12.58566981 16.9375 15.9375 C19.51031264 19.52589658 22.34311575 22.18787087 25.71875 25.01171875 C30.3868999 29.0803631 34.65293984 33.59445921 39 38 C39.8971875 38.87785156 40.794375 39.75570312 41.71875 40.66015625 C43.96269533 42.96173716 45.47183454 45.18495836 47 48 C46.34 48 45.68 48 45 48 C43.83050355 46.58972487 42.66524388 45.17575821 41.51953125 43.74609375 C39.97410307 41.97024184 38.36276096 40.51499477 36.5625 39 C32.45568974 35.4966714 28.63094004 31.7484734 24.8125 27.9375 C24.21832275 27.34775391 23.62414551 26.75800781 23.01196289 26.15039062 C20.32185496 23.45161344 17.73263694 20.73981361 15.32421875 17.78515625 C13.32691213 15.39174512 11.39600548 13.47090774 9 11.5 C5.56449468 8.56550587 2.69914071 5.62697033 0 2 C0 1.34 0 0.68 0 0 Z " fill="#ADADAD" transform="translate(113,164)"/>
<path d="M0 0 C0.99 0.33 1.98 0.66 3 1 C3 1.66 3 2.32 3 3 C2.34 3 1.68 3 1 3 C0.96846158 13.03205937 0.97467991 23.06332819 1.02846622 33.09531403 C1.05227194 37.75419738 1.06330442 42.4123668 1.04467773 47.07128906 C1.02716293 51.57159952 1.04381222 56.07063047 1.08367729 60.57078552 C1.0929373 62.28346045 1.09009992 63.99624689 1.07469368 65.70887756 C0.67480401 76.54516717 0.67480401 76.54516717 5.40405273 85.89648438 C6.59152546 86.94379961 7.7893213 87.97959922 9 89 C10.4610948 90.94081549 11.71139804 92.93823686 13 95 C7.42142642 92.43015809 3.25363034 89.28112707 0 84 C-1.61235472 77.77187167 -1.04750514 71.11720386 -0.87890625 64.74609375 C-0.86209842 62.87568742 -0.84929753 61.00524118 -0.84031677 59.13478088 C-0.8061224 54.23632404 -0.7178687 49.34030892 -0.61798096 44.44281006 C-0.52554143 39.43551662 -0.48472997 34.42782452 -0.43945312 29.41992188 C-0.34323065 19.61221448 -0.18983845 9.80631109 0 0 Z " fill="#505050" transform="translate(140,218)"/>
<path d="M0 0 C0 3 0 3 -1.70837402 5.06913757 C-2.50779419 5.8618959 -3.30721436 6.65465424 -4.13085938 7.47143555 C-5.48226013 8.82249641 -5.48226013 8.82249641 -6.86096191 10.20085144 C-7.85506621 11.17963479 -8.84933277 12.15825334 -9.84375 13.13671875 C-10.85331297 14.14068712 -11.86221605 15.14531946 -12.8704834 16.15058899 C-15.52718742 18.79583358 -18.19277699 21.43194644 -20.86029053 24.06628418 C-23.58023254 26.75554901 -26.29171143 29.45331671 -29.00390625 32.15039062 C-34.32767134 37.4419722 -39.66084801 42.72393928 -45 48 C-45 45 -45 45 -43.47119141 43.14648438 C-42.77171387 42.46908203 -42.07223633 41.79167969 -41.3515625 41.09375 C-40.59359375 40.34996094 -39.835625 39.60617187 -39.0546875 38.83984375 C-38.25289062 38.06769531 -37.45109375 37.29554688 -36.625 36.5 C-35.05254978 34.97094532 -33.48214602 33.43978252 -31.9140625 31.90625 C-31.2123291 31.22884766 -30.5105957 30.55144531 -29.78759766 29.85351562 C-27.82090872 27.92455899 -27.82090872 27.92455899 -26 25 C-25.34 25 -24.68 25 -24 25 C-24 24.34 -24 23.68 -24 23 C-22.63671875 21.66015625 -22.63671875 21.66015625 -20.6875 20.0625 C-15.14081936 15.35473013 -10.10555087 10.17423541 -5 5 C-3.33585392 3.33078888 -1.66818463 1.66517889 0 0 Z " fill="#BCBCBC" transform="translate(252,219)"/>
<path d="M0 0 C0.80037689 -0.00058411 1.60075378 -0.00116821 2.42538452 -0.00177002 C5.06626014 0.00101281 7.7060017 0.03211322 10.34667969 0.06347656 C12.17941674 0.07093827 14.01216178 0.07663153 15.84490967 0.08062744 C20.66526371 0.09588935 25.48513454 0.13517594 30.30529785 0.17944336 C35.2252753 0.22038406 40.14533094 0.23863589 45.06542969 0.25878906 C54.71668349 0.30166967 64.36757888 0.36992775 74.01855469 0.45410156 C74.01855469 0.78410156 74.01855469 1.11410156 74.01855469 1.45410156 C73.03407349 1.45330597 72.04959229 1.45251038 71.03527832 1.45169067 C61.73692207 1.44808128 52.43911732 1.475983 43.14093781 1.53437996 C38.36107928 1.56339665 33.58170981 1.58148405 28.80175781 1.57421875 C24.18482803 1.56760961 19.56886328 1.59020009 14.95213318 1.6326561 C13.19481341 1.64375921 11.43739544 1.64451273 9.68006897 1.6345253 C-2.55525906 1.29269403 -2.55525906 1.29269403 -12.87414551 7.16989136 C-13.23955444 7.59368073 -13.60496338 8.01747009 -13.98144531 8.45410156 C-10.96442411 1.41438542 -7.43815186 -0.14217405 0 0 Z " fill="#565656" transform="translate(302.9814453125,81.5458984375)"/>
<path d="M0 0 C10.60500092 -0.11587092 21.20985115 -0.2047038 31.81535625 -0.25906086 C36.74000603 -0.28515024 41.6642226 -0.32053629 46.58862305 -0.37719727 C51.34135505 -0.43154052 56.0936705 -0.4614255 60.84668922 -0.47438622 C62.65962087 -0.48362195 64.47252982 -0.50165752 66.28528404 -0.52865028 C68.82569946 -0.56497241 71.36439582 -0.56994419 73.9050293 -0.56762695 C74.65381348 -0.58560333 75.40259766 -0.60357971 76.17407227 -0.62210083 C80.25848705 -0.58181362 81.83288146 -0.14096282 85.00593567 2.53547668 C85.6639769 3.34876938 86.32201813 4.16206207 87 5 C86.67 5.66 86.34 6.32 86 7 C85.17551361 6.18860062 84.35102722 5.37720123 83.5015564 4.54121399 C79.89318053 1.55369572 76.54347822 1.28633544 71.97509766 1.34057617 C71.19393585 1.33009247 70.41277405 1.31960876 69.60794067 1.30880737 C67.04290555 1.28015753 64.47922831 1.28633663 61.9140625 1.29296875 C60.12900102 1.27984754 58.34395438 1.26454201 56.55892944 1.24714661 C51.87355704 1.20733302 47.18857336 1.19710852 42.50305176 1.19311523 C37.71675858 1.18377692 32.93069314 1.14635899 28.14453125 1.11132812 C18.76303144 1.0467894 9.38170239 1.01351885 0 1 C0 0.67 0 0.34 0 0 Z " fill="#606060" transform="translate(131,82)"/>
<path d="M0 0 C0.66 0.33 1.32 0.66 2 1 C-10.87 13.87 -23.74 26.74 -37 40 C-37 37 -37 37 -35.05859375 34.80078125 C-34.19363281 33.97964844 -33.32867187 33.15851563 -32.4375 32.3125 C-29.28436886 29.2569341 -26.22564065 26.21507779 -23.375 22.875 C-17.9698018 16.58370373 -12.04835891 10.94760402 -5.765625 5.54296875 C-3.75058361 3.78203656 -1.85305602 1.93026669 0 0 Z " fill="#A3A3A3" transform="translate(384,174)"/>
<path d="M0 0 C8.28582462 5.68635023 14.6934933 12.84196748 21.47265625 20.20507812 C24.8069911 23.7920141 28.12560648 26.98732504 32 30 C33.28584904 31.34153541 34.53889701 32.71561909 35.75 34.125 C36.34296875 34.80820313 36.9359375 35.49140625 37.546875 36.1953125 C39 38 39 38 40 40 C36.83199926 38.59779351 34.68824332 36.94085834 32.24121094 34.5 C31.52076599 33.78585938 30.80032104 33.07171875 30.05804443 32.3359375 C28.90782806 31.17964844 28.90782806 31.17964844 27.734375 30 C26.94097717 29.20851562 26.14757935 28.41703125 25.33013916 27.6015625 C23.65675946 25.92954263 21.98589819 24.25499903 20.31738281 22.578125 C17.75286403 20.00287602 15.17783011 17.43848948 12.6015625 14.875 C10.97852473 13.25064116 9.35610719 11.62566231 7.734375 10 C6.95946716 9.22914063 6.18455933 8.45828125 5.38616943 7.6640625 C4.67833313 6.94992188 3.97049683 6.23578125 3.24121094 5.5 C2.61373962 4.8709375 1.98626831 4.241875 1.33978271 3.59375 C0 2 0 2 0 0 Z " fill="#C6C6C6" transform="translate(263,215)"/>
<path d="M0 0 C0.99 0 1.98 0 3 0 C3 0.66 3 1.32 3 2 C3.66 2 4.32 2 5 2 C6.3046875 3.328125 6.3046875 3.328125 7.875 5.25 C11.60930975 9.66972103 15.65359389 13.69501458 19.82373047 17.69824219 C22.77286116 20.57941173 25.05668219 23.3596067 27 27 C23.26193389 25.43904931 20.86757459 23.12570854 18.015625 20.28125 C16.61376953 18.88326172 16.61376953 18.88326172 15.18359375 17.45703125 C14.7026123 16.97186035 14.22163086 16.48668945 13.72607422 15.98681641 C12.24795152 14.49793661 10.75940089 13.02008349 9.26953125 11.54296875 C8.34011719 10.61097656 7.41070312 9.67898438 6.453125 8.71875 C5.59879883 7.86216797 4.74447266 7.00558594 3.86425781 6.12304688 C2 4 2 4 2 2 C1.34 2 0.68 2 0 2 C0 1.34 0 0.68 0 0 Z " fill="#B9B9B9" transform="translate(206,366)"/>
<path d="M0 0 C0 3 0 3 -1.36669922 4.72746277 C-2.00623535 5.36033707 -2.64577148 5.99321136 -3.3046875 6.64526367 C-4.02543457 7.36578415 -4.74618164 8.08630463 -5.48876953 8.82865906 C-6.27622559 9.60063126 -7.06368164 10.37260345 -7.875 11.16796875 C-9.07358643 12.36018791 -9.07358643 12.36018791 -10.29638672 13.57649231 C-12.85732394 16.12059854 -15.42848137 18.65409392 -18 21.1875 C-19.73505674 22.9075157 -21.46944074 24.6282103 -23.203125 26.34960938 C-27.46096689 30.57432329 -31.72725243 34.79036476 -36 39 C-36 36 -36 36 -34.05981445 33.71923828 C-32.72503052 32.40802002 -32.72503052 32.40802002 -31.36328125 31.0703125 C-30.88682663 30.59810272 -30.41037201 30.12589294 -29.91947937 29.63937378 C-28.39071133 28.12740333 -26.85188767 26.62614948 -25.3125 25.125 C-24.29423621 24.12178923 -23.27664993 23.11789028 -22.25976562 22.11328125 C-20.37303843 20.25101365 -18.48180886 18.39380267 -16.5871582 16.53955078 C-14.0424316 14.0416508 -11.51783218 11.5249791 -9 9 C-6 6 -3 3 0 0 Z " fill="#9A9A9A" transform="translate(243,215)"/>
<path d="M0 0 C0 0.99 0 1.98 0 3 C-1.39786893 3.92054783 -2.8008679 4.83410185 -4.2265625 5.7109375 C-6.99903584 7.72617142 -9.0137779 10.31055229 -11.21484375 12.91796875 C-15.98912984 18.48622802 -21.38464731 23.30143959 -27 28 C-27.66 27.67 -28.32 27.34 -29 27 C-25.19776083 23.14844023 -21.38908788 19.30340607 -17.57421875 15.46435547 C-16.27651486 14.15657422 -14.98060901 12.84700631 -13.68652344 11.53564453 C-11.82953602 9.65448499 -9.96624438 7.77977878 -8.1015625 5.90625 C-7.52129303 5.31565796 -6.94102356 4.72506592 -6.34317017 4.11657715 C-2.22774341 0 -2.22774341 0 0 0 Z " fill="#717171" transform="translate(289,90)"/>
<path d="M0 0 C2 0 2 0 4.046875 1.9296875 C4.48580078 2.38698242 4.92472656 2.84427734 5.37695312 3.31542969 C7.3437605 5.35679114 9.36622699 7.33606078 11.390625 9.3203125 C13.01053542 10.92175489 14.63032406 12.52332046 16.25 14.125 C17.07757813 14.93582031 17.90515625 15.74664062 18.7578125 16.58203125 C19.54414063 17.36191406 20.33046875 18.14179688 21.140625 18.9453125 C21.85766602 19.65187988 22.57470703 20.35844727 23.31347656 21.08642578 C25 23 25 23 26 26 C22.27767824 24.44280633 19.89195804 22.15006457 17.05078125 19.31640625 C16.12072266 18.38892578 15.19066406 17.46144531 14.23242188 16.50585938 C13.75345459 16.02270264 13.2744873 15.5395459 12.78100586 15.04174805 C11.31385571 13.56386562 9.83631295 12.09698234 8.35742188 10.63085938 C7.43123047 9.70208984 6.50503906 8.77332031 5.55078125 7.81640625 C4.70169189 6.96506104 3.85260254 6.11371582 2.9777832 5.23657227 C1 3 1 3 0 0 Z " fill="#BCBCBC" transform="translate(180,340)"/>
<path d="M0 0 C3.96576202 2.17076559 6.90981744 4.67558207 10.08203125 7.88671875 C10.54107346 8.34859085 11.00011566 8.81046295 11.47306824 9.28633118 C12.92434914 10.74872138 14.36848204 12.21794126 15.8125 13.6875 C16.80096646 14.68600823 17.78989437 15.68405989 18.77929688 16.68164062 C21.19077274 19.11664308 23.59744957 21.5561959 26 24 C25.67 24.66 25.34 25.32 25 26 C18.6984366 20.28658252 12.4405032 14.57773538 6.5234375 8.4609375 C5.04566676 6.89937709 5.04566676 6.89937709 3 6 C2.67 5.01 2.34 4.02 2 3 C1.34 2.67 0.68 2.34 0 2 C0 1.34 0 0.68 0 0 Z " fill="#BABABA" transform="translate(218,89)"/>
<path d="M0 0 C4.81746335 1.1678699 6.93907331 3.99365659 9.96484375 7.64453125 C13.01987099 11.18038811 16.39864346 14.36919302 19.765625 17.60546875 C21.94175568 19.93758082 23.47367932 22.21000473 25 25 C21.26193389 23.43904931 18.86757459 21.12570854 16.015625 18.28125 C14.61376953 16.88326172 14.61376953 16.88326172 13.18359375 15.45703125 C12.7026123 14.97186035 12.22163086 14.48668945 11.72607422 13.98681641 C10.24795152 12.49793661 8.75940089 11.02008349 7.26953125 9.54296875 C6.34011719 8.61097656 5.41070312 7.67898438 4.453125 6.71875 C3.59879883 5.86216797 2.74447266 5.00558594 1.86425781 4.12304688 C0 2 0 2 0 0 Z " fill="#B8B8B8" transform="translate(155,315)"/>
<path d="M0 0 C1.66992778 1.43136667 3.33895044 2.86362623 5.00390625 4.30078125 C6.24621865 5.35832703 7.50200189 6.40049821 8.77734375 7.41796875 C13.65387075 11.36563347 17.30582817 15.94718138 21 21 C20.01 21 19.02 21 18 21 C16.81571171 19.61269086 15.64032825 18.21643356 14.51953125 16.77734375 C12.82488002 14.79516815 10.99060871 13.18320774 9 11.5 C5.56449468 8.56550587 2.69914071 5.62697033 0 2 C0 1.34 0 0.68 0 0 Z " fill="#CDCDCD" transform="translate(113,164)"/>
<path d="M0 0 C0.66 0 1.32 0 2 0 C3.41015625 1.43359375 3.41015625 1.43359375 5.0625 3.4375 C9.12068366 8.22341701 13.52000931 12.6114377 18 17 C17.34 17.66 16.68 18.32 16 19 C13.32122054 16.40804932 10.65919367 13.79952892 8 11.1875 C7.236875 10.44951172 6.47375 9.71152344 5.6875 8.95117188 C4.965625 8.23896484 4.24375 7.52675781 3.5 6.79296875 C2.8296875 6.1383667 2.159375 5.48376465 1.46875 4.80932617 C0 3 0 3 0 0 Z " fill="#A9A9A9" transform="translate(159,210)"/>
<path d="M0 0 C0 3 0 3 -1.49707031 4.83764648 C-2.18381836 5.50868408 -2.87056641 6.17972168 -3.578125 6.87109375 C-4.32707031 7.61037109 -5.07601563 8.34964844 -5.84765625 9.11132812 C-7.03681641 10.2627832 -7.03681641 10.2627832 -8.25 11.4375 C-9.02730469 12.20126953 -9.80460937 12.96503906 -10.60546875 13.75195312 C-12.06205702 15.1823975 -13.52170287 16.60973974 -14.98535156 18.03295898 C-17.0063848 20.00623393 -19.00649341 21.99895494 -21 24 C-21.99 23.67 -22.98 23.34 -24 23 C-23.28166992 22.38886353 -23.28166992 22.38886353 -22.54882812 21.76538086 C-17.30161912 17.24518713 -12.36644018 12.4875177 -7.5 7.5625 C-6.77296875 6.83095703 -6.0459375 6.09941406 -5.296875 5.34570312 C-3.52890501 3.56610176 -1.76333622 1.78419082 0 0 Z " fill="#7B7B7B" transform="translate(276,293)"/>
<path d="M0 0 C4.92498341 1.19393537 7.18536983 4.2274645 10.28515625 7.96484375 C11.76265163 9.71831777 13.27686097 11.29903944 14.9375 12.875 C17 15 17 15 17 17 C14.10147635 15.68692628 12.01722783 14.27315362 9.765625 12.03125 C8.90517578 11.17466797 8.90517578 11.17466797 8.02734375 10.30078125 C7.44082031 9.70652344 6.85429687 9.11226563 6.25 8.5 C5.64800781 7.90574219 5.04601562 7.31148438 4.42578125 6.69921875 C3.85730469 6.12816406 3.28882813 5.55710937 2.703125 4.96875 C2.18395508 4.44732422 1.66478516 3.92589844 1.12988281 3.38867188 C0 2 0 2 0 0 Z " fill="#BBBBBB" transform="translate(235,395)"/>
<path d="M0 0 C0.33 0.99 0.66 1.98 1 3 C-3.29 7.29 -7.58 11.58 -12 16 C-12.66 15.67 -13.32 15.34 -14 15 C-9.53648711 9.77674023 -4.9255107 4.79077028 0 0 Z " fill="#8A8A8A" transform="translate(318,239)"/>
<path d="M0 0 C6.69225295 4.59272261 11.88644571 9.7176333 17 16 C14 16 14 16 12.37426758 14.74658203 C11.80345459 14.17278809 11.2326416 13.59899414 10.64453125 13.0078125 C10.02255859 12.38519531 9.40058594 11.76257813 8.75976562 11.12109375 C8.11716797 10.46238281 7.47457031 9.80367187 6.8125 9.125 C6.15830078 8.47402344 5.50410156 7.82304687 4.83007812 7.15234375 C0 2.26686327 0 2.26686327 0 0 Z " fill="#B0B0B0" transform="translate(263,215)"/>
<path d="M0 0 C0.66 0 1.32 0 2 0 C2 0.66 2 1.32 2 2 C2.598125 2.268125 3.19625 2.53625 3.8125 2.8125 C5.97224808 3.98493467 7.35790256 5.19369282 9 7 C9.598125 6.67 10.19625 6.34 10.8125 6 C13 5 13 5 16 5 C14.35 6.98 12.7 8.96 11 11 C7.17324037 9.49663014 5.51559112 7.16477592 3 4 C2.01 3.67 1.02 3.34 0 3 C0 2.01 0 1.02 0 0 Z " fill="#A4A4A4" transform="translate(244,115)"/>
<path d="M0 0 C0.33 0.99 0.66 1.98 1 3 C-0.5675518 4.7021698 -2.15459784 6.38640554 -3.75 8.0625 C-4.63171875 9.00222656 -5.5134375 9.94195312 -6.421875 10.91015625 C-9 13 -9 13 -11.328125 12.80859375 C-11.87984375 12.54175781 -12.4315625 12.27492188 -13 12 C-12.48050781 11.55269531 -11.96101562 11.10539062 -11.42578125 10.64453125 C-7.47320346 7.21798969 -3.64172918 3.75553321 0 0 Z " fill="#9D9D9D" transform="translate(265,399)"/>
<path d="M0 0 C2 0 2 0 4.1875 2.0625 C5.12618482 3.04053089 6.0635239 4.01985403 7 5 C8.26819949 6.27346173 9.53909153 7.54424703 10.8125 8.8125 C11.875 9.875 12.9375 10.9375 14 12 C13.34 12.66 12.68 13.32 12 14 C10.1812664 12.23519919 8.37005009 10.46369235 6.5625 8.6875 C5.7880957 7.93823242 5.7880957 7.93823242 4.99804688 7.17382812 C2.59409824 4.80130365 1.08343207 3.25029621 0 0 Z " fill="#C4C4C4" transform="translate(180,340)"/>
<path d="M0 0 C0.33 0.99 0.66 1.98 1 3 C-2.3 6.3 -5.6 9.6 -9 13 C-9.66 12.34 -10.32 11.68 -11 11 C-7.37 7.37 -3.74 3.74 0 0 Z " fill="#B2B2B2" transform="translate(318,346)"/>
<path d="M0 0 C3.88397689 1.55002747 6.02979619 4.00476621 8.75 7.125 C9.94882813 8.49011719 9.94882813 8.49011719 11.171875 9.8828125 C12.07679688 10.93082031 12.07679688 10.93082031 13 12 C10 12 10 12 7.51953125 9.8828125 C6.62621094 8.97273438 5.73289063 8.06265625 4.8125 7.125 C3.91144531 6.22007812 3.01039063 5.31515625 2.08203125 4.3828125 C0 2 0 2 0 0 Z " fill="#BEBEBE" transform="translate(167,327)"/>
<path d="M0 0 C3.88397689 1.55002747 6.02979619 4.00476621 8.75 7.125 C9.94882813 8.49011719 9.94882813 8.49011719 11.171875 9.8828125 C12.07679688 10.93082031 12.07679688 10.93082031 13 12 C10 12 10 12 7.51953125 9.8828125 C6.62621094 8.97273438 5.73289063 8.06265625 4.8125 7.125 C3.91144531 6.22007812 3.01039063 5.31515625 2.08203125 4.3828125 C0 2 0 2 0 0 Z " fill="#B8B8B8" transform="translate(140,300)"/>
<path d="M0 0 C0.66 0 1.32 0 2 0 C2.226875 0.556875 2.45375 1.11375 2.6875 1.6875 C4.36716718 4.64691361 6.56751852 6.62408786 9 9 C10.71123624 10.96699166 12.35378517 12.97750749 14 15 C10.16752664 13.41507527 7.66913709 10.96883386 4.75 8.0625 C3.85796875 7.18722656 2.9659375 6.31195313 2.046875 5.41015625 C0 3 0 3 0 0 Z " fill="#B7B7B7" transform="translate(239,192)"/>
<path d="M0 0 C0.66 0.33 1.32 0.66 2 1 C-7.38709677 12.19354839 -7.38709677 12.19354839 -11 14 C-10.52590352 9.68269587 -7.96603297 7.66352539 -4.9375 4.75 C-4.01839844 3.85796875 -3.09929687 2.9659375 -2.15234375 2.046875 C-1.44207031 1.37140625 -0.73179687 0.6959375 0 0 Z " fill="#979797" transform="translate(288,281)"/>
<path d="M0 0 C0.66 0.66 1.32 1.32 2 2 C-3.94 7.445 -3.94 7.445 -10 13 C-10.66 12.67 -11.32 12.34 -12 12 C-8.04 8.04 -4.08 4.08 0 0 Z " fill="#8D8D8D" transform="translate(272,105)"/>
<path d="M0 0 C7.48291572 6.15034169 7.48291572 6.15034169 10 10 C7 10 7 10 5.17578125 8.3203125 C4.56089844 7.59585938 3.94601563 6.87140625 3.3125 6.125 C2.68988281 5.40570313 2.06726563 4.68640625 1.42578125 3.9453125 C0 2 0 2 0 0 Z " fill="#ABABAB" transform="translate(113,164)"/>
<path d="M0 0 C5.63689034 1.32632714 7.93185683 5.46631765 11 10 C10.01 10.495 10.01 10.495 9 11 C7.88625 9.6078125 7.88625 9.6078125 6.75 8.1875 C4.70438561 5.71061648 2.58326416 3.913529 0 2 C0 1.34 0 0.68 0 0 Z " fill="#CACACA" transform="translate(149,201)"/>
<path d="M0 0 C0 3 0 3 -1.75 5.04296875 C-2.4925 5.75066406 -3.235 6.45835938 -4 7.1875 C-4.7425 7.90292969 -5.485 8.61835937 -6.25 9.35546875 C-6.8275 9.89816406 -7.405 10.44085938 -8 11 C-8.99 10.67 -9.98 10.34 -11 10 C-5.555 5.05 -5.555 5.05 0 0 Z " fill="#9B9B9B" transform="translate(376,84)"/>
<path d="M0 0 C0.66 0 1.32 0 2 0 C3.5078125 1.75 3.5078125 1.75 5.125 4 C5.66382813 4.7425 6.20265625 5.485 6.7578125 6.25 C7.16773438 6.8275 7.57765625 7.405 8 8 C7.01 8 6.02 8 5 8 C0 2.65116279 0 2.65116279 0 0 Z " fill="#9F9F9F" transform="translate(159,210)"/>
<path d="M0 0 C3.94139078 1.66751148 6.7892812 4.22710649 10 7 C9.34 7.66 8.68 8.32 8 9 C6.66368764 7.6905332 5.33102075 6.37734515 4 5.0625 C3.2575 4.33160156 2.515 3.60070312 1.75 2.84765625 C0 1 0 1 0 0 Z " fill="#BEBEBE" transform="translate(207,162)"/>
<path d="M0 0 C0 3 0 3 -1.2421875 4.60546875 C-1.78101563 5.12753906 -2.31984375 5.64960937 -2.875 6.1875 C-3.40867187 6.71730469 -3.94234375 7.24710937 -4.4921875 7.79296875 C-6 9 -6 9 -8 9 C-6.90101298 5.70303895 -6.05402613 4.95329411 -3.4375 2.8125 C-2.79683594 2.28269531 -2.15617187 1.75289063 -1.49609375 1.20703125 C-0.75552734 0.60955078 -0.75552734 0.60955078 0 0 Z " fill="#A1A1A1" transform="translate(348,112)"/>
<path d="M0 0 C0.99 0.33 1.98 0.66 3 1 C1.35 2.65 -0.3 4.3 -2 6 C-2.99 5.67 -3.98 5.34 -5 5 C-3.35 3.35 -1.7 1.7 0 0 Z " fill="#939393" transform="translate(389,168)"/>
<path d="M0 0 C1.98 1.65 3.96 3.3 6 5 C5.34 5.66 4.68 6.32 4 7 C2.35 5.02 0.7 3.04 -1 1 C-0.67 0.67 -0.34 0.34 0 0 Z " fill="#A3A3A3" transform="translate(187,238)"/>
<path d="M0 0 C1.98 1.65 3.96 3.3 6 5 C5.34 5.66 4.68 6.32 4 7 C2.35 5.02 0.7 3.04 -1 1 C-0.67 0.67 -0.34 0.34 0 0 Z " fill="#A7A7A7" transform="translate(134,185)"/>
</svg>
