<?xml version="1.0" encoding="UTF-8"?>
<svg version="1.1" xmlns="http://www.w3.org/2000/svg" width="500" height="500">
<path d="M0 0 C65.44308776 0 65.44308776 0 83.39455128 15.97857952 C84.49900332 17.19751977 85.58299743 18.43536214 86.64399719 19.69230652 C87.91096259 21.10390017 89.17964112 22.51395768 90.44983864 23.92264366 C91.08261734 24.63659223 91.71539605 25.3505408 92.36734986 26.08612418 C95.74156598 29.82257036 99.29366256 33.38340446 102.82585144 36.96968079 C108.69611134 42.97601419 114.44796382 49.0766831 120.12329102 55.26733398 C128.133031 64.00424076 136.33351622 72.54242517 144.58313334 81.05235994 C155.62585842 92.46131467 166.61480197 103.92916303 177.37852287 115.60227394 C178.53651827 116.85466791 179.69956446 118.10241286 180.86789703 119.34516907 C182.45660021 121.03804416 184.02496432 122.74750658 185.58869934 124.46342468 C186.47035672 125.41748042 187.3520141 126.37153616 188.26038837 127.35450268 C190 130 190 130 189.87086296 132.71787167 C188.82434271 135.46031637 187.54888598 136.97790232 185.4934082 139.07177734 C184.75206131 139.83541595 184.01071442 140.59905457 183.24690247 141.38583374 C182.43968246 142.19436798 181.63246246 143.00290222 180.80078125 143.8359375 C179.55907417 145.09405746 179.55907417 145.09405746 178.2922821 146.37759399 C176.53966626 148.14606992 174.78169099 149.90924822 173.01879883 151.66748047 C170.32068844 154.36680786 167.6532288 157.09409573 164.98632812 159.82421875 C163.28044009 161.53824594 161.57281458 163.25054603 159.86328125 164.9609375 C159.0661824 165.78161713 158.26908356 166.60229675 157.4478302 167.44784546 C151.82803796 172.97572931 151.82803796 172.97572931 147.57666016 173.1003418 C144.73219436 171.88563578 143.15923783 170.70268611 141.0625 168.4375 C140.381875 167.71304688 139.70125 166.98859375 139 166.2421875 C136.58928317 163.53954793 134.20945378 160.81237825 131.84375 158.0703125 C127.29067528 152.95774978 122.42850886 148.15375226 117.1875 143.75 C112.32232431 139.58540961 108.13083694 134.81056104 103.82421875 130.0859375 C99.52908696 125.37533077 95.12101752 120.92733133 90.25 116.8125 C86.2006614 113.32818539 82.65100367 109.44254573 79.07617188 105.48706055 C73.03855206 98.80810108 66.84871989 92.87033134 60 87 C59.67 167.19 59.34 247.38 59 330 C39.53 330 20.06 330 0 330 C0 221.1 0 112.2 0 0 Z " fill="#FDFDFD" transform="translate(52,80)"/>
<path d="M0 0 C19.14 0 38.28 0 58 0 C58 108.9 58 217.8 58 330 C38.86 330 19.72 330 0 330 C-2.16347863 327.83652137 -1.15507446 322.7351912 -1.15821838 319.73045349 C-1.16315636 318.74546295 -1.16809434 317.7604724 -1.17318195 316.74563366 C-1.18863949 313.41823349 -1.19693979 310.09085272 -1.20532227 306.76342773 C-1.21489431 304.38892443 -1.22490398 302.01442285 -1.23532104 299.6399231 C-1.25962712 293.8441153 -1.27934288 288.04830475 -1.29707379 282.25247341 C-1.31794251 275.51096275 -1.3444118 268.76947769 -1.37124526 262.02798856 C-1.41895244 250.00475573 -1.46220812 237.98151114 -1.50268555 225.95825195 C-1.54202459 214.27595097 -1.58344697 202.59366045 -1.62768555 190.91137695 C-1.63040982 190.19177374 -1.63313409 189.47217053 -1.63594092 188.73076116 C-1.64962013 185.12087049 -1.66334046 181.51097998 -1.67708123 177.90108955 C-1.7910951 147.93408144 -1.89781975 117.96705093 -2 88 C-2.88042969 88.88042969 -3.76085937 89.76085937 -4.66796875 90.66796875 C-7.00130208 93.00130208 -9.33463542 95.33463542 -11.66796875 97.66796875 C-12.2323701 98.23241101 -12.79677145 98.79685328 -13.37827587 99.37839985 C-14.84249026 100.8425023 -16.30712239 102.30618694 -17.77180481 103.76982117 C-20.19622896 106.19640365 -22.60450679 108.63837783 -25.01171875 111.08203125 C-26.420678 112.50477487 -27.82965198 113.92750427 -29.23950195 115.34936523 C-30.21196884 116.33199785 -31.18264932 117.31640133 -32.15161133 118.30249023 C-33.55862126 119.7336325 -34.97256198 121.15795058 -36.38671875 122.58203125 C-37.22420654 123.42999268 -38.06169434 124.2779541 -38.92456055 125.15161133 C-41 127 -41 127 -43 127 C-43 127.66 -43 128.32 -43 129 C-43.66 129 -44.32 129 -45 129 C-45.35227661 129.84123413 -45.35227661 129.84123413 -45.71166992 130.69946289 C-47.31270104 133.55838202 -49.28138162 135.50585688 -51.61328125 137.80859375 C-52.9909668 139.17661133 -52.9909668 139.17661133 -54.39648438 140.57226562 C-55.36836175 141.52747384 -56.340368 142.48255093 -57.3125 143.4375 C-58.27324846 144.38820522 -59.23353957 145.33937285 -60.19335938 146.29101562 C-61.97209262 148.05234686 -63.75287508 149.81161281 -65.53637695 151.56811523 C-69.19887985 155.18343496 -72.84370076 158.80685042 -76.375 162.55078125 C-77.58313534 163.80487826 -78.79147203 165.05878134 -80 166.3125 C-80.90492188 167.28026367 -80.90492188 167.28026367 -81.828125 168.26757812 C-82.42109375 168.87666016 -83.0140625 169.48574219 -83.625 170.11328125 C-84.15351563 170.66798096 -84.68203125 171.22268066 -85.2265625 171.79418945 C-87.65932045 173.44829071 -89.11438144 173.42225143 -92 173 C-93.8527832 171.74658203 -93.8527832 171.74658203 -95.55078125 170.0078125 C-96.16630859 169.38519531 -96.78183594 168.76257813 -97.41601562 168.12109375 C-98.04185547 167.46238281 -98.66769531 166.80367187 -99.3125 166.125 C-100.28026367 165.14853516 -100.28026367 165.14853516 -101.26757812 164.15234375 C-106 159.29472553 -106 159.29472553 -106 157 C-106.66 157 -107.32 157 -108 157 C-108 156.34 -108 155.68 -108 155 C-108.85609863 154.62742065 -108.85609863 154.62742065 -109.72949219 154.24731445 C-114.22993622 151.77497375 -117.63167049 147.78038813 -121.25 144.1875 C-122.09046875 143.37990234 -122.9309375 142.57230469 -123.796875 141.74023438 C-124.5909375 140.95326172 -125.385 140.16628906 -126.203125 139.35546875 C-126.93176758 138.64028076 -127.66041016 137.92509277 -128.41113281 137.18823242 C-130 135 -130 135 -130.41772461 132.4387207 C-129.92314465 129.55131031 -129.21427026 128.62681378 -127.11328125 126.625 C-126.1996582 125.73554688 -126.1996582 125.73554688 -125.26757812 124.828125 C-124.62240234 124.22484375 -123.97722656 123.6215625 -123.3125 123 C-122.68666016 122.39671875 -122.06082031 121.7934375 -121.41601562 121.171875 C-120.2339536 120.03313462 -119.04679741 118.89963925 -117.8527832 117.7734375 C-115.53157314 115.55163359 -113.26723809 113.27682427 -111 111 C-74 74 -37 37 0 0 Z " fill="#FDFDFD" transform="translate(390,80)"/>
<path d="M0 0 C3.97549593 0.54872187 5.78575674 2.41741329 8.56765747 5.21362305 C9.47899445 6.12228119 10.39033142 7.03093933 11.32928467 7.96713257 C12.33180069 8.98186063 13.33417636 9.99672737 14.33642578 11.01171875 C15.39714444 12.07492068 16.45853211 13.13745552 17.52053833 14.19937134 C20.40303196 17.08527829 23.27625013 19.98026576 26.1480546 22.87680435 C29.15236138 25.90357375 32.16555163 28.92147105 35.177948 31.94018555 C40.88321987 37.65995035 46.58122565 43.38689342 52.27631271 49.11679745 C62.48147594 59.38388052 72.69885249 69.63880304 82.91894519 79.89102268 C86.50740337 83.49133579 90.09265964 87.09479968 93.67530465 90.70089722 C95.90060834 92.93999859 98.12787883 95.17713613 100.35560226 97.4138298 C101.39092287 98.45423227 102.42536479 99.49550994 103.45887756 100.53770828 C104.86573581 101.95620192 106.27592911 103.37138558 107.68630981 104.78637695 C108.47570009 105.58058548 109.26509037 106.37479401 110.07840157 107.19306946 C111.87829193 109.05869435 111.87829193 109.05869435 114 110 C114 109.34 114 108.68 114 108 C115.36328125 106.66015625 115.36328125 106.66015625 117.3125 105.0625 C124.59658659 98.8652043 131.36387672 92.08814497 137.45507812 84.71582031 C139.08080215 82.91025956 140.79925078 81.38290979 142.65234375 79.8125 C147.08643154 75.97613595 151.2420407 71.90622174 155.375 67.75 C156.44041016 66.69039062 156.44041016 66.69039062 157.52734375 65.609375 C158.20667969 64.92875 158.88601563 64.248125 159.5859375 63.546875 C160.49931885 62.63180176 160.49931885 62.63180176 161.43115234 61.69824219 C163.19402574 59.87921436 163.19402574 59.87921436 165 57 C165.66 57 166.32 57 167 57 C167 56.34 167 55.68 167 55 C168.36328125 53.66015625 168.36328125 53.66015625 170.3125 52.0625 C177.05157378 46.32890081 183.54412762 40.07740419 189.1875 33.25 C191.15756425 30.87924471 193.214345 28.87239325 195.5625 26.875 C199.44934612 23.5659283 203.07635607 20.04101153 206.6875 16.4375 C207.23414307 15.89528809 207.78078613 15.35307617 208.34399414 14.79443359 C210.93958783 12.18976026 213.42183605 9.55293935 215.76171875 6.71484375 C217.73353879 4.32319466 219.35446671 2.58731997 222 1 C222.99 1 223.98 1 225 1 C225.30255717 11.72692626 225.53286176 22.45282194 225.67355824 33.18316174 C225.74112454 38.16718989 225.83258854 43.14827884 225.98071289 48.13061523 C226.12303406 52.94846775 226.19990597 57.7635135 226.23340416 62.58330727 C226.25724028 64.41233811 226.30379197 66.24123237 226.37449074 68.06905174 C226.71045585 77.12351062 226.76434527 84.05739031 220.35772991 90.98000813 C213.07947297 98 213.07947297 98 210 98 C209.78085937 98.54366211 209.56171875 99.08732422 209.3359375 99.64746094 C207.55895085 102.77667207 205.15895025 105.12685399 202.625 107.640625 C202.09986816 108.16767029 201.57473633 108.69471558 201.03369141 109.23773193 C199.92661117 110.34616928 198.8170167 111.45210046 197.70507812 112.55566406 C195.99893025 114.25106301 194.30375953 115.9569161 192.609375 117.6640625 C191.53189108 118.74022558 190.45378733 119.81576851 189.375 120.890625 C188.86662598 121.40304749 188.35825195 121.91546997 187.83447266 122.44342041 C184.22994091 126 184.22994091 126 182 126 C181.76732422 126.55719727 181.53464844 127.11439453 181.29492188 127.68847656 C179.66430607 130.59923645 177.63760806 132.62181133 175.28125 134.984375 C174.34925781 135.91894531 173.41726563 136.85351562 172.45703125 137.81640625 C171.7292749 138.53787842 171.7292749 138.53787842 170.98681641 139.27392578 C169.49793661 140.75204848 168.02008349 142.24059911 166.54296875 143.73046875 C165.61097656 144.65988281 164.67898438 145.58929688 163.71875 146.546875 C162.86216797 147.40120117 162.00558594 148.25552734 161.12304688 149.13574219 C159 151 159 151 157 151 C157 151.66 157 152.32 157 153 C156.34 153 155.68 153 155 153 C154.76732422 153.55719727 154.53464844 154.11439453 154.29492188 154.68847656 C152.66430607 157.59923645 150.63760806 159.62181133 148.28125 161.984375 C147.34925781 162.91894531 146.41726563 163.85351562 145.45703125 164.81640625 C144.7292749 165.53787842 144.7292749 165.53787842 143.98681641 166.27392578 C142.49793661 167.75204848 141.02008349 169.24059911 139.54296875 170.73046875 C138.61097656 171.65988281 137.67898438 172.58929688 136.71875 173.546875 C135.86216797 174.40120117 135.00558594 175.25552734 134.12304688 176.13574219 C132 178 132 178 130 178 C129.78859375 178.53109375 129.5771875 179.0621875 129.359375 179.609375 C127.46391892 182.94276327 124.91540402 185.53258809 122.25 188.25 C121.73695313 188.80429687 121.22390625 189.35859375 120.6953125 189.9296875 C118.23052256 192.44402096 116.52449915 193.84009172 113.1171875 194.87890625 C108.00873272 193.43855246 105.28523 189.60072311 101.875 185.6875 C100.47921729 184.12652833 99.0808664 182.56784844 97.6796875 181.01171875 C97.06851074 180.31522217 96.45733398 179.61872559 95.82763672 178.90112305 C94.03640143 176.92734821 94.03640143 176.92734821 91.77001953 175.37426758 C91.18591309 174.92075928 90.60180664 174.46725098 90 174 C90 173.34 90 172.68 90 172 C89.42894531 171.75507813 88.85789062 171.51015625 88.26953125 171.2578125 C82.36155098 167.98351018 77.77591432 161.96965168 73.4375 156.875 C70.42190061 153.3355641 67.10286755 150.38184639 63.50390625 147.4453125 C62.75947266 146.72988281 62.75947266 146.72988281 62 146 C62 145.34 62 144.68 62 144 C61.41863281 143.74476563 60.83726562 143.48953125 60.23828125 143.2265625 C57.77184519 141.87497276 56.15157146 140.38307306 54.1875 138.375 C53.14529297 137.30958984 53.14529297 137.30958984 52.08203125 136.22265625 C49.52637642 133.49438684 47.10402445 130.66554241 44.67578125 127.82421875 C43.06863849 126.07471835 41.41639909 124.60551426 39.5625 123.125 C38.2940625 122.073125 38.2940625 122.073125 37 121 C37 120.34 37 119.68 37 119 C36.14341797 118.63261719 36.14341797 118.63261719 35.26953125 118.2578125 C32.60566841 116.78145478 30.81938928 115.04854253 28.6875 112.875 C27.96949219 112.15054688 27.25148437 111.42609375 26.51171875 110.6796875 C24.52075185 108.55557662 22.6222963 106.40150786 20.73046875 104.19140625 C16.95721306 99.85178056 12.85387506 95.95259778 8.625 92.0625 C7.90183594 91.39154297 7.17867187 90.72058594 6.43359375 90.02929688 C5.11452279 88.8055059 3.79390972 87.58337325 2.47119141 86.36352539 C1.63519594 85.58871047 0.80598591 84.80598591 0 84 C-0.09509559 81.38311559 -0.12556 78.792711 -0.11352539 76.17553711 C-0.11367142 75.35609116 -0.11381744 74.5366452 -0.1139679 73.69236755 C-0.11326852 70.97066647 -0.10547501 68.24903295 -0.09765625 65.52734375 C-0.09579216 63.64547259 -0.09436821 61.76360094 -0.09336853 59.88172913 C-0.08954267 54.91851471 -0.07971181 49.95532936 -0.06866455 44.99212646 C-0.0584519 39.93160394 -0.05387122 34.87107673 -0.04882812 29.81054688 C-0.0380896 19.87368512 -0.02101236 9.93684497 0 0 Z " fill="#FCFCFC" transform="translate(137,216)"/>
<path d="M0 0 C12.98346697 -1.21266285 25.96796559 -2.03433602 39 -2.5 C39.95157108 -2.53424072 40.90314217 -2.56848145 41.88354874 -2.60375977 C63.80833378 -3.30166886 83.37030074 -3.70949734 100.37503052 11.56188965 C109.0017187 20.11751874 116.5125893 29.73843138 123 40 C126.28863156 38.62393465 127.76242063 37.29262695 129.64111328 34.28466797 C138.64201566 20.56584074 150.56765261 3.79898198 167.28128052 -0.60049438 C180.74203104 -3.27256369 194.72787372 -2.84199085 208.375 -2.375 C209.32327919 -2.34260475 210.27155838 -2.3102095 211.2485733 -2.27683258 C223.1917632 -1.83778375 235.0970022 -1.06521717 247 0 C247 5.03528097 245.916798 5.5868485 242.4400177 9.074646 C241.70414469 9.8209373 241.70414469 9.8209373 240.95340556 10.58230519 C239.30234407 12.25170472 237.63729228 13.90640497 235.97192383 15.56152344 C234.78710683 16.75339545 233.60313619 17.94610933 232.41995239 19.13960266 C229.19983967 22.38226588 225.96706904 25.61202696 222.73123765 28.83899593 C220.03347551 31.53165719 217.34192507 34.23048388 214.6503641 36.92934155 C208.30190602 43.29481668 201.94319836 49.64992225 195.57788086 55.99853516 C189.0056949 62.55379652 182.45005682 69.12527332 175.9025057 75.7051332 C170.28522132 81.34908597 164.65831005 86.9833082 159.02343005 92.60969377 C155.65593507 95.97225172 152.29214145 99.33831093 148.93735695 102.71355438 C145.78271486 105.88651022 142.616224 109.04713787 139.44011307 112.19859886 C138.27519187 113.35849859 137.11453213 114.52269603 135.95845222 115.69140816 C134.38186534 117.28385479 132.79073746 118.86016811 131.19490051 120.43328857 C130.30721387 121.32038891 129.41952723 122.20748924 128.50494099 123.12147141 C126 125 126 125 123.5 125.57083893 C119.93641683 124.75714613 118.38314654 123.00963285 115.80509949 120.43328857 C115.05752655 119.69635722 115.05752655 119.69635722 114.29485112 118.94453835 C112.62611488 117.29341965 110.97585098 115.62499351 109.32495117 113.95605469 C108.13315301 112.76939384 106.94028548 111.58380617 105.74642944 110.3992157 C102.50579748 107.17712851 99.28113805 103.9394803 96.05961013 100.69830608 C92.68945675 97.31179243 89.30674508 93.93786369 85.92585754 90.56207275 C80.25040296 84.89114173 74.58523736 79.21008645 68.92602539 73.52294922 C62.37804311 66.94290633 55.81416568 60.37905559 49.2415182 53.8236568 C42.92485595 47.52284341 36.61952586 41.210807 30.31933022 34.8935318 C27.6351975 32.2025168 24.94713907 29.5155147 22.25588036 26.83162689 C19.08909217 23.67248471 15.93232384 20.50366179 12.78310776 17.32700539 C11.62394188 16.16093724 10.46133906 14.99827447 9.29513359 13.83924675 C7.70732487 12.26008957 6.13229076 10.66921478 4.5599823 9.074646 C3.23128003 7.74173334 3.23128003 7.74173334 1.87573528 6.38189316 C0 4 0 4 0 0 Z " fill="#FCFCFC" transform="translate(127,80)"/>
<path d="M0 0 C3.25368543 1.11604225 4.77960197 2.61328925 7.16333008 5.08374023 C7.9909082 5.9287207 8.81848633 6.77370117 9.67114258 7.64428711 C10.52192383 8.5330957 11.37270508 9.4219043 12.24926758 10.33764648 C13.94770743 12.08836564 15.64814087 13.83715357 17.35083008 15.58374023 C18.09929199 16.36289795 18.84775391 17.14205566 19.61889648 17.94482422 C21.66611201 20.06072256 21.66611201 20.06072256 24.62426758 21.90014648 C24.62426758 22.56014648 24.62426758 23.22014648 24.62426758 23.90014648 C25.28426758 23.90014648 25.94426758 23.90014648 26.62426758 23.90014648 C27.82348633 25.12280273 27.82348633 25.12280273 29.31176758 26.96264648 C31.87499537 30.02534693 34.56743137 32.84409017 37.45629883 35.59545898 C38.13926025 36.25151123 38.82222168 36.90756348 39.52587891 37.58349609 C40.91647987 38.9116454 42.31863181 40.22781251 43.73242188 41.53125 C44.37735596 42.15185303 45.02229004 42.77245605 45.68676758 43.41186523 C46.27586914 43.96318115 46.8649707 44.51449707 47.47192383 45.08251953 C48.62426758 46.90014648 48.62426758 46.90014648 48.456604 49.22009277 C47.41640351 52.56945141 45.92548452 54.11283082 43.45922852 56.59863281 C42.57450867 57.499189 41.68978882 58.39974518 40.77825928 59.32759094 C39.80563684 60.29637233 38.83241654 61.26455381 37.85864258 62.23217773 C36.86262497 63.23343175 35.86712867 64.2352046 34.87213135 65.23747253 C32.7871597 67.33284107 30.6948873 69.42056827 28.59741211 71.50341797 C25.91086769 74.17275726 23.24523028 76.8619325 20.58492661 79.55739307 C18.53482468 81.62945564 16.47315861 83.68969711 14.40790558 85.74664879 C13.42011566 86.73361881 12.43616161 87.7244435 11.45616913 88.71915627 C10.08510971 90.10763672 8.69635152 91.47857294 7.30688477 92.84863281 C6.52158386 93.63297195 5.73628296 94.4173111 4.92718506 95.22541809 C2.62426758 96.90014648 2.62426758 96.90014648 0.13198853 97.412323 C-3.30072413 96.71122633 -4.70091837 95.21635586 -7.18188477 92.75683594 C-8.10568939 91.85201981 -9.02949402 90.94720367 -9.98129272 90.01496887 C-10.975466 89.01516484 -11.96890796 88.01463316 -12.96166992 87.01342773 C-13.98759328 85.99341282 -15.01418395 84.97406867 -16.04141235 83.95536804 C-18.18971848 81.81893973 -20.32847458 79.67348095 -22.46118164 77.52148438 C-25.1967598 74.76299944 -27.95642932 72.03015029 -30.72395897 69.30376911 C-32.84842999 67.2048546 -34.95866129 65.09207112 -37.06492996 62.97490501 C-38.07710006 61.96124678 -39.09388236 60.95217253 -40.11527634 59.94780922 C-41.53988722 58.54312612 -42.94347256 57.1172147 -44.34594727 55.69042969 C-45.15027191 54.88434769 -45.95459656 54.07826569 -46.78329468 53.24775696 C-48.37573242 50.90014648 -48.37573242 50.90014648 -48.2550354 48.25041199 C-47.05850131 45.0522279 -45.23713563 43.41254617 -42.75073242 41.08764648 C-39.66990256 38.18218693 -36.77047158 35.24078017 -34.02026367 32.02514648 C-30.49730801 27.94837837 -26.67286342 24.33139681 -22.68823242 20.71264648 C-16.82484207 15.34372606 -11.31971099 9.82153882 -6.26953125 3.67285156 C-2.98674672 -0.12553483 -2.98674672 -0.12553483 0 0 Z " fill="#FDFDFD" transform="translate(250.375732421875,217.099853515625)"/>
<path d="M0 0 C65.43868308 0 65.43868308 0 83.37339401 16.08436584 C84.47642602 17.31086611 85.5589192 18.55620111 86.61834717 19.82055664 C87.88358253 21.24041355 89.15062616 22.65866074 90.41927338 24.07546997 C91.0512712 24.79332294 91.68326902 25.51117592 92.3344183 26.25078201 C95.70324632 30.00458551 99.2530348 33.58044472 102.7835083 37.18139648 C109.39155875 43.97325619 115.83213917 50.90188395 122.22087979 57.89973736 C129.52149424 65.87997853 137.00129075 73.68281511 144.49790716 81.47849083 C159.86649139 97.46801279 175.00716177 113.65813334 190 130 C187 130 187 130 184.65303707 128.01938725 C183.72185842 127.08414439 182.79067976 126.14890154 181.83128357 125.18531799 C181.31152028 124.66741241 180.79175698 124.14950683 180.25624329 123.61590713 C178.50793508 121.87020875 176.77059697 120.11398098 175.03295898 118.35766602 C173.78519738 117.10742238 172.53676818 115.85784473 171.28771973 114.60888672 C167.89073021 111.20847746 164.5030089 107.7989646 161.11668658 104.38793683 C157.57716962 100.82599069 154.02880161 97.27288618 150.48121643 93.71897888 C143.75948249 86.98273983 137.04500657 80.23931711 130.33343703 73.49295229 C118.30909558 61.40673916 106.27258803 49.33264759 94.23335129 37.2612738 C90.0051376 33.0211994 85.7801216 28.77797062 81.55771053 24.53211796 C78.93470649 21.89531993 76.30973883 19.260483 73.68431854 16.626091 C72.46355608 15.4002447 71.24367178 14.17352318 70.02471352 12.9458828 C68.36598957 11.2755317 66.70425373 9.60823627 65.04173279 7.94166565 C64.11093116 7.00604577 63.18012953 6.07042589 62.22112179 5.1064539 C47.38073871 -8.96777783 21.44974949 1.35876753 1 1 C1 109.24 1 217.48 1 329 C19.81 329 38.62 329 58 329 C58 247.49 58 165.98 58 82 C65.87470663 88.74974854 65.87470663 88.74974854 68.97932434 91.86579895 C69.68443146 92.57097656 70.38953857 93.27615417 71.11601257 94.00270081 C71.86381485 94.7556694 72.61161713 95.508638 73.38208008 96.28442383 C74.59311401 97.49764816 74.59311401 97.49764816 75.82861328 98.73538208 C77.5702747 100.4808314 79.31078049 102.22743445 81.05024147 103.97507668 C83.80037696 106.73802062 86.55366384 109.49778902 89.30778503 112.25675964 C95.14567376 118.10570031 100.9792921 123.95889167 106.8125 129.8125 C113.58973307 136.61338409 120.36863427 143.41258872 127.1517086 150.20764732 C129.86927892 152.93171851 132.58383081 155.65877375 135.29829407 158.38594055 C136.95367992 160.04495666 138.60920505 161.7038338 140.26489258 163.36254883 C141.40177773 164.50718346 141.40177773 164.50718346 142.56163025 165.67494202 C143.25263824 166.36602051 143.94364624 167.057099 144.65559387 167.76911926 C145.2567291 168.3724751 145.85786432 168.97583094 146.47721577 169.59747028 C147.96550899 171.09816913 147.96550899 171.09816913 150 172 C150.23460937 171.42765625 150.46921875 170.8553125 150.7109375 170.265625 C152.29890437 167.47465293 154.19288222 165.84327784 156.625 163.75 C165.02249193 156.52236111 165.02249193 156.52236111 172 148 C172.66 148 173.32 148 174 148 C174.20367187 147.45859375 174.40734375 146.9171875 174.6171875 146.359375 C176.55312808 143.05624474 179.28699336 140.75877153 182.125 138.25 C182.68832031 137.74339844 183.25164062 137.23679688 183.83203125 136.71484375 C185.21651531 135.47115468 186.60761488 134.23483695 188 133 C188.66 133.33 189.32 133.66 190 134 C184.58032749 139.59692898 179.1335727 145.16640906 173.66699219 150.7175293 C171.81002867 152.60972901 169.95939165 154.50815883 168.11523438 156.4128418 C165.46555888 159.14727842 162.79404999 161.85861201 160.1171875 164.56640625 C159.29507782 165.42464493 158.47296814 166.28288361 157.62594604 167.16712952 C156.8455899 167.94801437 156.06523376 168.72889923 155.26123047 169.53344727 C154.58172333 170.22849869 153.90221619 170.92355011 153.20211792 171.6396637 C151 173 151 173 147.86428833 172.81455994 C144.6161548 171.89084028 143.33706711 170.89480189 141.0625 168.4375 C140.381875 167.71304688 139.70125 166.98859375 139 166.2421875 C136.58928317 163.53954793 134.20945378 160.81237825 131.84375 158.0703125 C127.29067528 152.95774978 122.42850886 148.15375226 117.1875 143.75 C112.32232431 139.58540961 108.13083694 134.81056104 103.82421875 130.0859375 C99.52908696 125.37533077 95.12101752 120.92733133 90.25 116.8125 C86.2006614 113.32818539 82.65100367 109.44254573 79.07617188 105.48706055 C73.03855206 98.80810108 66.84871989 92.87033134 60 87 C59.67 167.19 59.34 247.38 59 330 C39.53 330 20.06 330 0 330 C0 221.1 0 112.2 0 0 Z " fill="#929292" transform="translate(52,80)"/>
<path d="M0 0 C3.25368543 1.11604225 4.77960197 2.61328925 7.16333008 5.08374023 C7.9909082 5.9287207 8.81848633 6.77370117 9.67114258 7.64428711 C10.52192383 8.5330957 11.37270508 9.4219043 12.24926758 10.33764648 C13.94770743 12.08836564 15.64814087 13.83715357 17.35083008 15.58374023 C18.09929199 16.36289795 18.84775391 17.14205566 19.61889648 17.94482422 C21.66611201 20.06072256 21.66611201 20.06072256 24.62426758 21.90014648 C24.62426758 22.56014648 24.62426758 23.22014648 24.62426758 23.90014648 C25.28426758 23.90014648 25.94426758 23.90014648 26.62426758 23.90014648 C27.82348633 25.12280273 27.82348633 25.12280273 29.31176758 26.96264648 C31.87499537 30.02534693 34.56743137 32.84409017 37.45629883 35.59545898 C38.13926025 36.25151123 38.82222168 36.90756348 39.52587891 37.58349609 C40.91647987 38.9116454 42.31863181 40.22781251 43.73242188 41.53125 C44.37735596 42.15185303 45.02229004 42.77245605 45.68676758 43.41186523 C46.27586914 43.96318115 46.8649707 44.51449707 47.47192383 45.08251953 C48.62426758 46.90014648 48.62426758 46.90014648 48.46156311 49.22009277 C47.40756842 52.59376703 45.88897773 54.11749438 43.37988281 56.59863281 C42.47902451 57.499189 41.5781662 58.39974518 40.65000916 59.32759094 C39.66117215 60.29600333 38.67211774 61.26419378 37.68286133 62.23217773 C36.67450862 63.23306612 35.66703841 64.2348443 34.66041565 65.23747253 C32.01412696 67.86851997 29.35604606 70.48733185 26.6953125 73.10375977 C23.98014828 75.77793884 21.27633222 78.46353801 18.5715332 81.14819336 C13.26680713 86.41007521 7.94956902 91.6590803 2.62426758 96.90014648 C1.63426758 96.40514648 1.63426758 96.40514648 0.62426758 95.90014648 C15.80426758 80.72014648 30.98426758 65.54014648 46.62426758 49.90014648 C44.7870319 46.22567513 43.3867039 44.41849636 40.54174805 41.59057617 C39.28066727 40.32972198 39.28066727 40.32972198 37.99411011 39.043396 C37.08573395 38.14534241 36.17735779 37.24728882 35.24145508 36.32202148 C34.31205109 35.39544739 33.38264709 34.46887329 32.42507935 33.51422119 C29.96022908 31.0569886 27.48943092 28.60582288 25.01733398 26.15588379 C22.49335993 23.6524084 19.9750737 21.14322585 17.45629883 18.63452148 C12.51783161 13.71747123 7.57305557 8.8068086 2.62426758 3.90014648 C-0.83884745 5.39287324 -3.11672456 7.37230652 -5.79296875 10.01098633 C-6.65678665 10.85881683 -7.52060455 11.70664734 -8.41059875 12.58016968 C-9.33366318 13.4978714 -10.2567276 14.41557312 -11.20776367 15.36108398 C-12.16843813 16.31278918 -13.12918856 17.26441771 -14.0900116 18.2159729 C-16.09840034 20.20790158 -18.10238009 22.20415581 -20.10400391 24.20288086 C-22.67261398 26.76608784 -25.25701844 29.31272052 -27.84560108 31.85573387 C-29.8331091 33.81355226 -31.809321 35.78247628 -33.78253746 37.75468826 C-35.19247486 39.15836308 -36.61399013 40.55037701 -38.03559875 41.94223022 C-38.88365585 42.79636505 -39.73171295 43.65049988 -40.60546875 44.53051758 C-41.35951492 45.2794931 -42.1135611 46.02846863 -42.89045715 46.80014038 C-44.59908837 48.75891027 -44.59908837 48.75891027 -44.2754364 51.00674438 C-42.75775512 54.2006626 -40.00255028 56.2472258 -37.37573242 58.52514648 C-32.51492742 62.86826782 -28.06009933 67.33775992 -23.76635742 72.25170898 C-17.99433731 78.64620185 -11.72656568 84.59172884 -5.59838867 90.64233398 C-3.64014591 92.63155071 -1.97932139 94.62136216 -0.37573242 96.90014648 C-3.87510402 95.39642018 -6.17741897 93.37306887 -8.88476562 90.71337891 C-9.76860428 89.84875534 -10.65244293 88.98413177 -11.56306458 88.0933075 C-12.51809845 87.14796624 -13.47256829 86.20205488 -14.42651367 85.25561523 C-15.40968069 84.28395841 -16.39285028 83.31230419 -17.37602234 82.34065247 C-19.43164258 80.30600123 -21.48259959 78.26676486 -23.53125 76.22509766 C-26.15871953 73.60863067 -28.80424462 71.01124925 -31.45444965 68.41784191 C-33.48991662 66.41958323 -35.51188072 64.408072 -37.53035545 62.39266396 C-38.50026702 61.4288096 -39.47518346 60.46996474 -40.45510292 59.51628685 C-41.82198095 58.18345394 -43.16836804 56.8297034 -44.51367188 55.47509766 C-45.28548294 54.71057785 -46.05729401 53.94605804 -46.85249329 53.15837097 C-48.37573242 50.90014648 -48.37573242 50.90014648 -48.24455261 48.26387024 C-47.06270061 45.04850797 -45.24478528 43.41969893 -42.75073242 41.08764648 C-39.66990256 38.18218693 -36.77047158 35.24078017 -34.02026367 32.02514648 C-30.49730801 27.94837837 -26.67286342 24.33139681 -22.68823242 20.71264648 C-16.82484207 15.34372606 -11.31971099 9.82153882 -6.26953125 3.67285156 C-2.98674672 -0.12553483 -2.98674672 -0.12553483 0 0 Z " fill="#777777" transform="translate(250.375732421875,217.099853515625)"/>
<path d="M0 0 C6.0883273 5.03743232 11.64959001 10.52066425 17.21801758 16.12036133 C18.23034656 17.13461279 19.24290589 18.14863436 20.25567627 19.16244507 C22.42328123 21.33319381 24.58932722 23.50548171 26.75415993 25.67899513 C30.17600401 29.11442262 33.60171397 32.54597779 37.02799988 35.97697449 C44.2924753 43.25251637 51.55269315 50.5323001 58.8125 57.8125 C66.66826117 65.69029017 74.52475827 73.5673382 82.38612098 81.43953913 C85.79402482 84.85243142 89.19947454 88.26774828 92.60307944 91.68492758 C94.71465749 93.80394452 96.82828693 95.92090597 98.94248962 98.03730392 C99.92458744 99.0212794 100.90581765 100.00612168 101.88612938 100.9918766 C103.22056156 102.33348687 104.55834537 103.671761 105.89631653 105.00984192 C106.64493863 105.76068463 107.39356073 106.51152735 108.16486835 107.28512287 C109.89787524 109.06724129 109.89787524 109.06724129 112 110 C112 109.34 112 108.68 112 108 C113.36328125 106.66015625 113.36328125 106.66015625 115.3125 105.0625 C122.59658659 98.8652043 129.36387672 92.08814497 135.45507812 84.71582031 C137.08080215 82.91025956 138.79925078 81.38290979 140.65234375 79.8125 C145.08643154 75.97613595 149.2420407 71.90622174 153.375 67.75 C154.44041016 66.69039062 154.44041016 66.69039062 155.52734375 65.609375 C156.20667969 64.92875 156.88601563 64.248125 157.5859375 63.546875 C158.49931885 62.63180176 158.49931885 62.63180176 159.43115234 61.69824219 C161.19402574 59.87921436 161.19402574 59.87921436 163 57 C163.66 57 164.32 57 165 57 C165 56.34 165 55.68 165 55 C166.36328125 53.66015625 166.36328125 53.66015625 168.3125 52.0625 C175.05157378 46.32890081 181.54412762 40.07740419 187.1875 33.25 C189.15756425 30.87924471 191.214345 28.87239325 193.5625 26.875 C197.44934612 23.5659283 201.07635607 20.04101153 204.6875 16.4375 C205.23414307 15.89528809 205.78078613 15.35307617 206.34399414 14.79443359 C208.93622547 12.19313438 211.40166575 9.56557783 213.71875 6.71484375 C215.97127037 4.03419022 217.90988104 2.58920404 221 1 C219.48722127 4.55089918 217.41879899 6.82808345 214.69735718 9.54315186 C213.79429337 10.448965 212.89122955 11.35477814 211.96080017 12.28804016 C210.95752037 13.28424222 209.95414497 14.28034802 208.95068359 15.27636719 C207.8957852 16.33070133 206.84132723 17.38547628 205.78727722 18.44065857 C202.92624565 21.3022641 200.0590883 24.15766007 197.19079924 27.01198864 C194.19366458 29.9966232 191.20219042 32.98692016 188.21011353 35.97662354 C182.54408256 41.63643763 176.8729725 47.29113403 171.20002425 52.94401383 C164.74150354 59.38018203 158.28865902 65.82202826 151.83628726 72.26435995 C138.56383508 85.51590543 125.28426419 98.76029626 112 112 C108.43723838 110.48325019 106.14709889 108.39847112 103.41888428 105.67285156 C102.04754333 104.30997009 102.04754333 104.30997009 100.64849854 102.91955566 C99.64284366 101.91001239 98.63729294 100.90036535 97.63183594 99.890625 C96.56763422 98.82913377 95.50300758 97.76806839 94.43798828 96.70739746 C91.54932297 93.82784928 88.66701901 90.94201128 85.78608227 88.05473328 C82.7728349 85.03642509 79.75471407 82.02299651 76.73736572 79.00878906 C71.67319357 73.94825519 66.6132528 68.88351911 61.55566406 63.81640625 C55.70175346 57.95159963 49.84065664 52.09404875 43.97579741 46.24019241 C38.94447689 41.21793468 33.91704793 36.19180638 28.89287782 31.16239548 C25.89028632 28.15668023 22.88634631 25.15234624 19.87889862 22.15148926 C17.0541325 19.33248174 14.23426807 16.50866266 11.41818237 13.6809845 C10.38144076 12.64158882 9.34297575 11.60390901 8.30271149 10.56803894 C6.8882625 9.15901699 5.4805174 7.74327465 4.07318115 6.32714844 C3.28194729 5.53516052 2.49071342 4.74317261 1.67550278 3.92718506 C0 2 0 2 0 0 Z " fill="#313131" transform="translate(139,216)"/>
<path d="M0 0 C3.4819656 1.9519881 6.23395892 3.9938622 9.03125 6.8359375 C9.75957031 7.57070312 10.48789063 8.30546875 11.23828125 9.0625 C11.98464844 9.825625 12.73101562 10.58875 13.5 11.375 C14.24636719 12.13039063 14.99273437 12.88578125 15.76171875 13.6640625 C17.16054039 15.08021467 18.55728484 16.49842413 19.95117188 17.91943359 C22.28806127 20.29252361 24.64292681 22.64695983 27 25 C102 100 102 100 104.57104492 102.57543945 C106.69989027 104.70043324 108.84026179 106.81239921 110.98828125 108.91796875 C112.42978738 110.34104467 113.87119148 111.76422394 115.3125 113.1875 C116.05306641 113.91130859 116.79363281 114.63511719 117.55664062 115.38085938 C118.25595703 116.07373047 118.95527344 116.76660156 119.67578125 117.48046875 C120.31427002 118.10848389 120.95275879 118.73649902 121.6105957 119.38354492 C123 121 123 121 123 123 C119.24694281 121.43557081 116.86165541 119.11315448 114.00128174 116.25524902 C113.51192131 115.76900857 113.02256088 115.28276813 112.51837134 114.78179312 C110.88148253 113.15287538 109.251828 111.5169096 107.62207031 109.88085938 C106.4494958 108.71099504 105.27649625 107.54155658 104.10310364 106.37251282 C100.91899237 103.19752253 97.7412438 100.01623441 94.56486225 96.83351326 C91.24331471 93.50690665 87.91689542 90.1851774 84.59124756 86.8626709 C79.00921266 81.2842749 73.43140916 75.70167397 67.85595703 70.11669922 C61.40219972 63.65204687 54.94125442 57.19464558 48.47654843 50.74094343 C42.93143225 45.20488959 37.3902061 39.66496474 31.85224032 34.12175798 C28.54224711 30.80864063 25.23090295 27.49690392 21.91605377 24.18864441 C18.80237646 21.08072499 15.69359531 17.96799117 12.58859825 14.85140038 C11.445428 13.70557563 10.30053392 12.56146789 9.15384102 11.41916847 C7.59483525 9.86558831 6.04205903 8.30604441 4.49078369 6.74475098 C3.61843204 5.87164528 2.7460804 4.99853958 1.84729385 4.09897614 C0 2 0 2 0 0 Z " fill="#505050" transform="translate(127,82)"/>
<path d="M0 0 C5.40791503 4.5104545 10.42145014 9.28952253 15.38208008 14.28442383 C16.18943604 15.09324005 16.99679199 15.90205627 17.82861328 16.73538208 C19.5702747 18.4808314 21.31078049 20.22743445 23.05024147 21.97507668 C25.80037696 24.73802062 28.55366384 27.49778902 31.30778503 30.25675964 C37.14567376 36.10570031 42.9792921 41.95889167 48.8125 47.8125 C55.58973307 54.61338409 62.36863427 61.41258872 69.1517086 68.20764732 C71.86927892 70.93171851 74.58383081 73.65877375 77.29829407 76.38594055 C78.95367992 78.04495666 80.60920505 79.7038338 82.26489258 81.36254883 C83.02281601 82.12563858 83.78073944 82.88872833 84.56163025 83.67494202 C85.25263824 84.36602051 85.94364624 85.057099 86.65559387 85.76911926 C87.55729671 86.67415302 87.55729671 86.67415302 88.47721577 87.59747028 C89.96550899 89.09816913 89.96550899 89.09816913 92 90 C92.23460937 89.42765625 92.46921875 88.8553125 92.7109375 88.265625 C94.29890437 85.47465293 96.19288222 83.84327784 98.625 81.75 C107.02249193 74.52236111 107.02249193 74.52236111 114 66 C114.66 66 115.32 66 116 66 C116.30550781 65.18789062 116.30550781 65.18789062 116.6171875 64.359375 C118.55312808 61.05624474 121.28699336 58.75877153 124.125 56.25 C124.68832031 55.74339844 125.25164062 55.23679688 125.83203125 54.71484375 C127.21651531 53.47115468 128.60761488 52.23483695 130 51 C130.66 51.33 131.32 51.66 132 52 C126.58032749 57.59692898 121.1335727 63.16640906 115.66699219 68.7175293 C113.81002867 70.60972901 111.95939165 72.50815883 110.11523438 74.4128418 C107.46555888 77.14727842 104.79404999 79.85861201 102.1171875 82.56640625 C101.29507782 83.42464493 100.47296814 84.28288361 99.62594604 85.16712952 C98.8455899 85.94801437 98.06523376 86.72889923 97.26123047 87.53344727 C96.24196976 88.5760244 96.24196976 88.5760244 95.20211792 89.6396637 C93 91 93 91 89.86428833 90.81455994 C86.6161548 89.89084028 85.33706711 88.89480189 83.0625 86.4375 C82.381875 85.71304688 81.70125 84.98859375 81 84.2421875 C78.58928317 81.53954793 76.20945378 78.81237825 73.84375 76.0703125 C69.29067528 70.95774978 64.42850886 66.15375226 59.1875 61.75 C54.32232431 57.58540961 50.13083694 52.81056104 45.82421875 48.0859375 C41.52908696 43.37533077 37.12101752 38.92733133 32.25 34.8125 C28.19985994 31.32749576 24.64979479 27.44085541 21.07397461 23.48486328 C15.2668228 17.06160281 9.3110023 11.07853806 2.56640625 5.640625 C0.76856476 3.75759901 0.52975895 2.49987042 0 0 Z " fill="#2C2C2C" transform="translate(110,162)"/>
<path d="M0 0 C0.33 0 0.66 0 1 0 C1 80.85 1 161.7 1 245 C0.67 245 0.34 245 0 245 C-0.33 165.8 -0.66 86.6 -1 5 C-5.29 9.29 -9.58 13.58 -14 18 C-14.66 17.67 -15.32 17.34 -16 17 C-14.09042286 14.86823936 -12.17291237 12.7446755 -10.25 10.625 C-9.71117187 10.02171875 -9.17234375 9.4184375 -8.6171875 8.796875 C-8.08867187 8.21679688 -7.56015625 7.63671875 -7.015625 7.0390625 C-6.53383789 6.50490723 -6.05205078 5.97075195 -5.55566406 5.42041016 C-3.83020274 3.8449654 -2.12452742 2.95002452 0 2 C0 1.34 0 0.68 0 0 Z " fill="#7F7F7F" transform="translate(389,163)"/>
<path d="M0 0 C3.56276162 1.51674981 5.85290111 3.60152888 8.58111572 6.32714844 C9.49534302 7.23573608 10.40957031 8.14432373 11.35150146 9.08044434 C12.35715634 10.08998761 13.36270706 11.09963465 14.36816406 12.109375 C15.43236578 13.17086623 16.49699242 14.23193161 17.56201172 15.29260254 C20.45067703 18.17215072 23.33298099 21.05798872 26.21391773 23.94526672 C29.2271651 26.96357491 32.24528593 29.97700349 35.26263428 32.99121094 C40.32680643 38.05174481 45.3867472 43.11648089 50.44433594 48.18359375 C56.29824654 54.04840037 62.15934336 59.90595125 68.02420259 65.75980759 C73.05552311 70.78206532 78.08295207 75.80819362 83.10712218 80.83760452 C86.10971368 83.84331977 89.11365369 86.84765376 92.12110138 89.84851074 C94.9458675 92.66751826 97.76573193 95.49133734 100.58181763 98.3190155 C101.61855924 99.35841118 102.65702425 100.39609099 103.69728851 101.43196106 C105.1117375 102.84098301 106.5194826 104.25672535 107.92681885 105.67285156 C108.71805271 106.46483948 109.50928658 107.25682739 110.32449722 108.07281494 C112 110 112 110 112 112 C108.90429953 110.63720049 106.94693013 109.13402918 104.6875 106.62890625 C103.78644531 105.64374023 103.78644531 105.64374023 102.8671875 104.63867188 C102.25101562 103.95353516 101.63484375 103.26839844 101 102.5625 C99.7738956 101.20685946 98.54481712 99.85390173 97.3125 98.50390625 C96.77238281 97.90392822 96.23226562 97.3039502 95.67578125 96.68579102 C94.00127383 94.91015526 94.00127383 94.91015526 91.79296875 93.40600586 C91.20128906 92.94202393 90.60960937 92.47804199 90 92 C90 91.34 90 90.68 90 90 C89.42894531 89.75507813 88.85789062 89.51015625 88.26953125 89.2578125 C82.36155098 85.98351018 77.77591432 79.96965168 73.4375 74.875 C70.42190061 71.3355641 67.10286755 68.38184639 63.50390625 65.4453125 C63.00761719 64.96835937 62.51132813 64.49140625 62 64 C62 63.34 62 62.68 62 62 C61.12794922 61.61714844 61.12794922 61.61714844 60.23828125 61.2265625 C57.77184519 59.87497276 56.15157146 58.38307306 54.1875 56.375 C53.49269531 55.66472656 52.79789063 54.95445312 52.08203125 54.22265625 C49.52637642 51.49438684 47.10402445 48.66554241 44.67578125 45.82421875 C43.06863849 44.07471835 41.41639909 42.60551426 39.5625 41.125 C38.2940625 40.073125 38.2940625 40.073125 37 39 C37 38.34 37 37.68 37 37 C36.42894531 36.75507813 35.85789063 36.51015625 35.26953125 36.2578125 C32.60566841 34.78145478 30.81938928 33.04854253 28.6875 30.875 C27.96949219 30.15054687 27.25148437 29.42609375 26.51171875 28.6796875 C24.51899754 26.55370499 22.62203698 24.39717124 20.73046875 22.18359375 C16.33079603 17.12115172 11.40080667 12.6985907 6.43359375 8.20507812 C5.74652344 7.57408203 5.05945313 6.94308594 4.3515625 6.29296875 C3.73104004 5.7311792 3.11051758 5.16938965 2.47119141 4.59057617 C1 3 1 3 0 0 Z " fill="#313131" transform="translate(137,298)"/>
<path d="M0 0 C0.99 0.495 0.99 0.495 2 1 C-38.26 41.26 -78.52 81.52 -120 123 C-120.66 122.67 -121.32 122.34 -122 122 C-120.38405168 119.95880212 -118.7143618 117.95927063 -117 116 C-116.34 116 -115.68 116 -115 116 C-115 115.34 -115 114.68 -115 114 C-113.63671875 112.66015625 -113.63671875 112.66015625 -111.6875 111.0625 C-108.00718715 107.93522164 -104.53930917 104.66092028 -101.125 101.25 C-100.19945312 100.32703125 -99.27390625 99.4040625 -98.3203125 98.453125 C-95.89923425 96.03168325 -95.89923425 96.03168325 -94 93 C-93.34 93 -92.68 93 -92 93 C-91.505 91.515 -91.505 91.515 -91 90 C-89.64453125 88.66796875 -89.64453125 88.66796875 -87.8125 87.1875 C-83.61251527 83.62664338 -79.70492067 79.8268618 -75.8125 75.9375 C-74.92171753 75.05324341 -74.92171753 75.05324341 -74.01293945 74.15112305 C-71.25797339 71.38766948 -68.63994891 68.61307381 -66.19921875 65.56640625 C-65.11060547 64.29603516 -65.11060547 64.29603516 -64 63 C-63.34 63 -62.68 63 -62 63 C-61.67 62.01 -61.34 61.02 -61 60 C-59.50390625 58.52734375 -59.50390625 58.52734375 -57.5625 56.9375 C-51.05988044 51.41552684 -44.95131564 45.44317055 -39.5 38.875 C-38.675 37.92625 -37.85 36.9775 -37 36 C-36.34 36 -35.68 36 -35 36 C-34.67 35.01 -34.34 34.02 -34 33 C-32.50390625 31.52734375 -32.50390625 31.52734375 -30.5625 29.9375 C-24.25842176 24.58583646 -18.17922216 18.83756925 -13 12.375 C-12.01 11.199375 -12.01 11.199375 -11 10 C-10.34 10 -9.68 10 -9 10 C-8.67 9.01 -8.34 8.02 -8 7 C-6.15234375 5.17578125 -6.15234375 5.17578125 -3.9375 3.3125 C-2.83728516 2.37857422 -2.83728516 2.37857422 -1.71484375 1.42578125 C-1.14894531 0.95527344 -0.58304687 0.48476562 0 0 Z " fill="#494949" transform="translate(373,82)"/>
<path d="M0 0 C-1.612328 4.03082 -4.46234596 6.75944137 -7.5 9.75 C-7.99886719 10.25660156 -8.49773437 10.76320313 -9.01171875 11.28515625 C-12.74658861 15 -12.74658861 15 -15 15 C-15.21914063 15.54366211 -15.43828125 16.08732422 -15.6640625 16.64746094 C-17.44104915 19.77667207 -19.84104975 22.12685399 -22.375 24.640625 C-23.16269775 25.43119293 -23.16269775 25.43119293 -23.96630859 26.23773193 C-25.07338883 27.34616928 -26.1829833 28.45210046 -27.29492188 29.55566406 C-29.00106975 31.25106301 -30.69624047 32.9569161 -32.390625 34.6640625 C-33.46810892 35.74022558 -34.54621267 36.81576851 -35.625 37.890625 C-36.13337402 38.40304749 -36.64174805 38.91546997 -37.16552734 39.44342041 C-40.77005909 43 -40.77005909 43 -43 43 C-43.23267578 43.55719727 -43.46535156 44.11439453 -43.70507812 44.68847656 C-45.33569393 47.59923645 -47.36239194 49.62181133 -49.71875 51.984375 C-51.11673828 53.38623047 -51.11673828 53.38623047 -52.54296875 54.81640625 C-53.02813965 55.2973877 -53.51331055 55.77836914 -54.01318359 56.27392578 C-55.50206339 57.75204848 -56.97991651 59.24059911 -58.45703125 60.73046875 C-59.38902344 61.65988281 -60.32101562 62.58929688 -61.28125 63.546875 C-62.13783203 64.40120117 -62.99441406 65.25552734 -63.87695312 66.13574219 C-66 68 -66 68 -68 68 C-68 68.66 -68 69.32 -68 70 C-68.66 70 -69.32 70 -70 70 C-70.23122559 70.55719727 -70.46245117 71.11439453 -70.70068359 71.68847656 C-72.34634585 74.6161598 -74.39975251 76.62385188 -76.7890625 78.984375 C-77.25234955 79.44483215 -77.7156366 79.90528931 -78.19296265 80.37969971 C-79.66565898 81.84125078 -81.14517403 83.29567168 -82.625 84.75 C-83.62806322 85.74302611 -84.63067257 86.73651089 -85.6328125 87.73046875 C-88.08330835 90.15897941 -90.5399667 92.58114675 -93 95 C-93.66 94.67 -94.32 94.34 -95 94 C-88.18857767 86.46340724 -81.2409123 79.12970375 -74 72 C-70.09558724 68.10292329 -66.20435056 64.19280569 -62.3137207 60.28198242 C-55.70874156 53.64440905 -49.09873677 47.01186409 -42.48582172 40.38219738 C-38.48847305 36.37436407 -34.49303421 32.36466278 -30.50170898 28.35083008 C-26.63590377 24.46337079 -22.76530077 20.58074981 -18.89125633 16.70150185 C-17.41465575 15.22119689 -15.93982084 13.73912857 -14.46676064 12.25530052 C-12.41512511 10.18924595 -10.35741693 8.12943478 -8.2980957 6.07104492 C-7.686642 5.45240067 -7.07518829 4.83375641 -6.44520569 4.19636536 C-2.22810948 0 -2.22810948 0 0 0 Z " fill="#404040" transform="translate(362,299)"/>
<path d="M0 0 C0 3.56417742 -0.93702675 4.29194323 -3.35015869 6.73740262 C-3.84820007 7.22670548 -4.34624146 7.71600833 -4.859375 8.22013855 C-5.3820697 8.74539653 -5.9047644 9.2706545 -6.44329834 9.81182939 C-8.20513652 11.57862815 -9.97752005 13.33445828 -11.75 15.09057617 C-13.0117118 16.35144219 -14.27276424 17.61296831 -15.53320312 18.87510681 C-18.96442351 22.30719049 -22.40483737 25.72992446 -25.84692383 29.15110564 C-29.43974644 32.72521709 -33.02411595 36.30778492 -36.609375 39.88948059 C-43.40325173 46.67402048 -50.20474194 53.45087473 -57.00897217 60.22502929 C-64.75353368 67.93609775 -72.48961243 75.65565236 -80.22497559 83.3759464 C-96.14053502 99.2601197 -112.06676548 115.13355784 -128 131 C-128 128 -128 128 -125.33203125 125.0390625 C-124.16635025 123.8933646 -122.99279412 122.75563773 -121.8125 121.625 C-121.23435547 121.06039062 -120.65621094 120.49578125 -120.06054688 119.9140625 C-118.96411713 118.84364973 -117.86461836 117.77636435 -116.76098633 116.71337891 C-114.48433084 114.49827171 -112.24325298 112.24891405 -110 110 C-73.33333333 73.33333333 -36.66666667 36.66666667 0 0 Z " fill="#7B7B7B" transform="translate(389,81)"/>
<path d="M0 0 C0.99 0.33 1.98 0.66 3 1 C2.13223183 1.85111359 2.13223183 1.85111359 1.24693298 2.71942139 C-4.19608873 8.06236237 -9.62704646 13.41714301 -15.04477787 18.78571701 C-17.83069699 21.54551433 -20.62108659 24.30045834 -23.42211914 27.04492188 C-26.12384895 29.69242467 -28.81326925 32.35186819 -31.49450493 35.02011871 C-32.52085632 36.03721351 -33.55160684 37.04988841 -34.58671761 38.05806732 C-36.03291819 39.46810956 -37.46234046 40.89529925 -38.89086914 42.32324219 C-40.11997765 43.53569611 -40.11997765 43.53569611 -41.37391663 44.77264404 C-43.22614723 46.82704447 -43.22614723 46.82704447 -42.92088318 49.12579346 C-41.364546 52.2932933 -38.62404046 54.34948782 -36 56.625 C-31.139195 60.96812133 -26.68436691 65.43761343 -22.390625 70.3515625 C-16.61860489 76.74605537 -10.35083326 82.69158235 -4.22265625 88.7421875 C-2.26441349 90.73140422 -0.60358897 92.72121568 1 95 C-2.50609027 93.49541048 -4.80253136 91.46674596 -7.5090332 88.79736328 C-8.39287186 87.92951202 -9.27671051 87.06166077 -10.18733215 86.16751099 C-11.14229234 85.21892494 -12.09676397 84.26984685 -13.05078125 83.3203125 C-14.03387579 82.3461869 -15.01704646 81.37213813 -16.00028992 80.39816284 C-18.0557577 78.35915669 -20.106816 76.31582261 -22.15551758 74.27001953 C-24.78465786 71.64628208 -27.42960078 69.03910933 -30.07871723 66.43556404 C-32.11254743 64.43142222 -34.13508493 62.41617383 -36.15462303 60.39764023 C-37.1254104 59.43106602 -38.10033018 58.46862421 -39.0793705 57.51041031 C-40.44394286 56.17259542 -41.79140162 54.81739122 -43.13793945 53.46142578 C-44.29565605 52.31131516 -44.29565605 52.31131516 -45.47676086 51.13796997 C-47 49 -47 49 -46.92803955 46.88867188 C-45.8719748 44.73945335 -44.90348641 43.77823258 -43.01342773 42.31982422 C-38.29084717 38.47993602 -34.07227707 34.19701833 -29.78515625 29.8828125 C-28.92941513 29.02565643 -28.07367401 28.16850037 -27.19200134 27.28536987 C-24.47979535 24.56760046 -21.7711017 21.84636109 -19.0625 19.125 C-17.21572631 17.27320658 -15.36872347 15.42164166 -13.52148438 13.5703125 C-9.01166799 9.04951565 -4.50472431 4.52587054 0 0 Z " fill="#E0E0E0" transform="translate(249,219)"/>
<path d="M0 0 C0 3 0 3 -1.63982391 5.0089674 C-2.41413002 5.78050813 -3.18843613 6.55204885 -3.98620605 7.3469696 C-4.86969223 8.23457977 -5.75317841 9.12218994 -6.66343689 10.03669739 C-7.65504428 11.01768672 -8.6467941 11.9985321 -9.63867188 12.97924805 C-10.67378561 14.0135159 -11.70823987 15.04844413 -12.74208069 16.08398438 C-15.55555944 18.89832605 -18.37821126 21.70330396 -21.2025547 24.50673652 C-24.15075349 27.43621804 -27.09049372 30.37416221 -30.03112793 33.31123352 C-35.6031567 38.87392726 -41.18279069 44.42892772 -46.76517248 49.9812296 C-53.11919379 56.30175227 -59.46472783 62.63076635 -65.80955029 68.9605211 C-78.86358774 81.9831765 -91.92828756 94.99508749 -105 108 C-105 105 -105 105 -103.62646484 103.30175781 C-102.99434082 102.69170898 -102.3622168 102.08166016 -101.7109375 101.453125 C-101.01613281 100.7725 -100.32132812 100.091875 -99.60546875 99.390625 C-98.86941406 98.68421875 -98.13335937 97.9778125 -97.375 97.25 C-91.45311835 91.54518127 -91.45311835 91.54518127 -85.9765625 85.421875 C-83.28678559 82.19999403 -80.2864918 79.5477191 -77.09667969 76.83007812 C-73.44086294 73.63911371 -70.0452115 70.18946223 -66.625 66.75 C-65.91472656 66.04359375 -65.20445312 65.3371875 -64.47265625 64.609375 C-63.79332031 63.92875 -63.11398437 63.248125 -62.4140625 62.546875 C-61.50068115 61.63180176 -61.50068115 61.63180176 -60.56884766 60.69824219 C-58.80597426 58.87921436 -58.80597426 58.87921436 -57 56 C-56.34 56 -55.68 56 -55 56 C-55 55.34 -55 54.68 -55 54 C-53.63671875 52.66015625 -53.63671875 52.66015625 -51.6875 51.0625 C-44.94842622 45.32890081 -38.45587238 39.07740419 -32.8125 32.25 C-30.84243575 29.87924471 -28.785655 27.87239325 -26.4375 25.875 C-22.55065388 22.5659283 -18.92364393 19.04101153 -15.3125 15.4375 C-14.76585693 14.89528809 -14.21921387 14.35307617 -13.65600586 13.79443359 C-11.06136561 11.19071704 -8.58366203 8.5563471 -6.25 5.71484375 C-4.29055873 3.35058736 -2.53717387 1.69144924 0 0 Z " fill="#383838" transform="translate(359,217)"/>
<path d="M0 0 C3.27196452 1.43258772 5.43203956 3.18825316 7.94238281 5.71533203 C9.08311249 6.8562883 9.08311249 6.8562883 10.24688721 8.02029419 C11.05744568 8.84117523 11.86800415 9.66205627 12.703125 10.5078125 C13.54091492 11.34843231 14.37870483 12.18905212 15.24188232 13.05514526 C17.91598431 15.74044001 20.58304724 18.43260655 23.25 21.125 C25.06204062 22.94707155 26.87453518 24.76869177 28.6875 26.58984375 C33.13028036 31.05467252 37.56730165 35.52516283 42 40 C45.27196452 38.56741228 47.43203956 36.81174684 49.94238281 34.28466797 C51.08311249 33.1437117 51.08311249 33.1437117 52.24688721 31.97970581 C53.05744568 31.15882477 53.86800415 30.33794373 54.703125 29.4921875 C55.54091492 28.65156769 56.37870483 27.81094788 57.24188232 26.94485474 C59.91598431 24.25955999 62.58304724 21.56739345 65.25 18.875 C67.06204062 17.05292845 68.87453518 15.23130823 70.6875 13.41015625 C75.13028036 8.94532748 79.56730165 4.47483717 84 0 C84 3 84 3 82.48144531 4.87931824 C81.77084961 5.58325211 81.06025391 6.28718597 80.328125 7.01245117 C79.12687988 8.2133564 79.12687988 8.2133564 77.90136719 9.43852234 C77.02641602 10.29798965 76.15146484 11.15745697 75.25 12.04296875 C74.3621582 12.9265657 73.47431641 13.81016266 72.55957031 14.72053528 C70.19749372 17.06864023 67.82914118 19.41003525 65.45751953 21.74847412 C63.03919125 24.13611759 60.62933037 26.53227328 58.21875 28.92773438 C53.48695353 33.62639683 48.74670259 38.31639917 44 43 C39.94641188 41.14303086 37.2428923 38.42910993 34.1875 35.25 C29.3631985 30.31261765 29.3631985 30.31261765 24.1875 25.75 C21.10846259 23.20259494 18.61702745 20.33125725 16.03125 17.29296875 C13.53171613 14.47137956 10.91154338 11.79310537 8.25 9.125 C6.86554688 7.73667969 6.86554688 7.73667969 5.453125 6.3203125 C3.03168325 3.89923425 3.03168325 3.89923425 0 2 C0 1.34 0 0.68 0 0 Z " fill="#535353" transform="translate(208,80)"/>
<path d="M0 0 C0.66 0 1.32 0 2 0 C3.20188087 3.6056426 3.08837688 6.84505564 3.02172852 10.5925293 C3.01212097 11.36349945 3.00251343 12.1344696 2.99261475 12.92880249 C2.95963125 15.47736767 2.91929645 18.02576108 2.87890625 20.57421875 C2.8546045 22.34112441 2.83076097 24.10803643 2.80735779 25.87495422 C2.74452235 30.52584066 2.67545413 35.17661457 2.60510254 39.82739258 C2.53441425 44.57302729 2.46960024 49.3187418 2.40429688 54.06445312 C2.27529148 63.37638977 2.13970368 72.68821814 2 82 C1.34 82 0.68 82 0 82 C0 54.94 0 27.88 0 0 Z " fill="#BEBEBE" transform="translate(137,216)"/>
<path d="M0 0 C3.4819656 1.9519881 6.23395892 3.9938622 9.03125 6.8359375 C9.75957031 7.57070312 10.48789063 8.30546875 11.23828125 9.0625 C11.98464844 9.825625 12.73101562 10.58875 13.5 11.375 C14.24636719 12.13039063 14.99273437 12.88578125 15.76171875 13.6640625 C17.16054039 15.08021467 18.55728484 16.49842413 19.95117188 17.91943359 C22.28806127 20.29252361 24.64292681 22.64695983 27 25 C36 34 45 43 54 52 C53.34 52.66 52.68 53.32 52 54 C45.21418782 47.260449 38.43373162 40.5155691 31.66012573 33.76375008 C28.51498377 30.62906264 25.36800127 27.49626972 22.21679688 24.36767578 C19.17799478 21.35054263 16.14404908 18.32860512 13.11346436 15.30321884 C11.95413243 14.14759339 10.79303653 12.99373489 9.63018799 11.8416481 C8.00661993 10.23251588 6.38933581 8.61731708 4.7734375 7.00048828 C3.84966309 6.08115509 2.92588867 5.1618219 1.97412109 4.21463013 C0 2 0 2 0 0 Z " fill="#5B5B5B" transform="translate(127,82)"/>
<path d="M0 0 C0.66 0 1.32 0 2 0 C0.49315032 3.53239023 -1.55366612 5.7962166 -4.26611328 8.49316406 C-5.58725632 9.81408051 -5.58725632 9.81408051 -6.93508911 11.16168213 C-7.89672351 12.11310431 -8.8584672 13.06441603 -9.8203125 14.015625 C-10.80438107 14.99596129 -11.78800742 15.97674168 -12.77120972 16.95794678 C-15.35442714 19.53354467 -17.94359512 22.10307857 -20.53405762 24.67138672 C-23.1786762 27.29551067 -25.8176101 29.92533771 -28.45703125 32.5546875 C-33.63248072 37.7087167 -38.81423122 42.85635157 -44 48 C-44 45 -44 45 -42.27734375 43.01953125 C-41.50519531 42.29121094 -40.73304688 41.56289063 -39.9375 40.8125 C-37.01515384 38.04001774 -34.28810854 35.2068097 -31.671875 32.1484375 C-28.13779114 28.06580506 -24.30485026 24.44008438 -20.3125 20.8125 C-14.44290299 15.41479941 -8.89331869 9.85270898 -3.63012695 3.8605957 C-2.45672675 2.54023344 -1.23294368 1.26494049 0 0 Z " fill="#3D3D3D" transform="translate(248,217)"/>
<path d="M0 0 C2.91174859 1.32710455 5.08924444 2.79686493 7.42578125 4.9765625 C8.05363525 5.56050781 8.68148926 6.14445312 9.32836914 6.74609375 C9.98313232 7.36613281 10.63789551 7.98617188 11.3125 8.625 C12.33041626 9.58212891 12.33041626 9.58212891 13.36889648 10.55859375 C17.15186632 14.14741286 20.72464747 17.78785896 24.05859375 21.80078125 C29.93548077 28.45809994 36.50000816 34.54369738 42.81640625 40.78125 C44.75977927 42.75591167 46.40812059 44.73785558 48 47 C44.47435171 45.4939923 42.20467722 43.45257205 39.50683594 40.74975586 C38.62622498 39.87222153 37.74561401 38.99468719 36.83831787 38.09056091 C35.88682175 37.13216901 34.9355118 36.17359225 33.984375 35.21484375 C33.00396606 34.23324229 32.02318672 33.25201066 31.04205322 32.27113342 C28.99139099 30.21890976 26.94412518 28.16337735 24.89941406 26.10522461 C22.27258243 23.46134756 19.63915954 20.82415752 17.00341415 18.18916988 C14.98032484 16.16580938 12.95984646 14.13985906 10.94025421 12.1130085 C9.96956986 11.13913347 8.99827113 10.16587042 8.02635956 9.19322014 C6.67357592 7.83828035 5.32448179 6.4796599 3.97558594 5.12084961 C3.20599548 4.34744736 2.43640503 3.5740451 1.64349365 2.77720642 C0 1 0 1 0 0 Z " fill="#494949" transform="translate(202,267)"/>
<path d="M0 0 C0 3 0 3 -1.70837402 5.06913757 C-2.50779419 5.8618959 -3.30721436 6.65465424 -4.13085938 7.47143555 C-5.48226013 8.82249641 -5.48226013 8.82249641 -6.86096191 10.20085144 C-7.85506621 11.17963479 -8.84933277 12.15825334 -9.84375 13.13671875 C-10.85331297 14.14068712 -11.86221605 15.14531946 -12.8704834 16.15058899 C-15.52718742 18.79583358 -18.19277699 21.43194644 -20.86029053 24.06628418 C-23.58023254 26.75554901 -26.29171143 29.45331671 -29.00390625 32.15039062 C-34.32767134 37.4419722 -39.66084801 42.72393928 -45 48 C-45 45 -45 45 -42.33203125 42.0390625 C-41.16635025 40.8933646 -39.99279412 39.75563773 -38.8125 38.625 C-38.23435547 38.06039062 -37.65621094 37.49578125 -37.06054688 36.9140625 C-35.96411713 35.84364973 -34.86461836 34.77636435 -33.76098633 33.71337891 C-31.48433084 31.49827171 -29.24325298 29.24891405 -27 27 C-18 18 -9 9 0 0 Z " fill="#707070" transform="translate(306,164)"/>
<path d="M0 0 C0 4.30809059 -2.17001664 5.62033409 -5.08789062 8.59570312 C-5.78076172 9.28599609 -6.47363281 9.97628906 -7.1875 10.6875 C-8.19780273 11.7403418 -8.19780273 11.7403418 -9.22851562 12.81445312 C-9.88916016 13.47767578 -10.54980469 14.14089844 -11.23046875 14.82421875 C-11.83270264 15.43354248 -12.43493652 16.04286621 -13.05541992 16.6706543 C-15.59496102 18.40672477 -16.98026004 18.47353935 -20 18 C-21.8527832 16.71484375 -21.8527832 16.71484375 -23.55078125 14.9375 C-24.16630859 14.30585938 -24.78183594 13.67421875 -25.41601562 13.0234375 C-26.35477539 12.02183594 -26.35477539 12.02183594 -27.3125 11 C-27.95767578 10.33226562 -28.60285156 9.66453125 -29.26757812 8.9765625 C-30.85688927 7.32838797 -32.43337902 5.66970902 -34 4 C-33.67 3.34 -33.34 2.68 -33 2 C-29.66353464 3.4163551 -27.84455707 5.08171998 -25.5625 7.875 C-22.97355245 11.03459724 -20.24690581 13.51608921 -17 16 C-16.10796875 15.09636719 -15.2159375 14.19273437 -14.296875 13.26171875 C-13.11471766 12.07017921 -11.93241853 10.87878034 -10.75 9.6875 C-10.16347656 9.09259766 -9.57695312 8.49769531 -8.97265625 7.88476562 C-6.12147184 5.01756332 -3.34887496 2.29613457 0 0 Z " fill="#616161" transform="translate(318,235)"/>
<path d="M0 0 C0.66 0.33 1.32 0.66 2 1 C-10.87 13.87 -23.74 26.74 -37 40 C-37.99 39.67 -38.98 39.34 -40 39 C-39.34 39 -38.68 39 -38 39 C-37.76539063 38.42765625 -37.53078125 37.8553125 -37.2890625 37.265625 C-35.70109563 34.47465293 -33.80711778 32.84327784 -31.375 30.75 C-22.97750807 23.52236111 -22.97750807 23.52236111 -16 15 C-15.34 15 -14.68 15 -14 15 C-13.79632813 14.45859375 -13.59265625 13.9171875 -13.3828125 13.359375 C-11.44687192 10.05624474 -8.71300664 7.75877153 -5.875 5.25 C-5.31167969 4.74339844 -4.74835938 4.23679688 -4.16796875 3.71484375 C-2.78348469 2.47115468 -1.39238512 1.23483695 0 0 Z " fill="#6B6B6B" transform="translate(240,213)"/>
<path d="M0 0 C0 3 0 3 -1.40466309 4.76542664 C-2.06196411 5.41606583 -2.71926514 6.06670502 -3.39648438 6.73706055 C-4.1372522 7.47760178 -4.87802002 8.21814301 -5.64123535 8.98112488 C-6.45056519 9.77497086 -7.25989502 10.56881683 -8.09375 11.38671875 C-8.91500366 12.20372757 -9.73625732 13.02073639 -10.58239746 13.86250305 C-13.21466272 16.47793609 -15.85715306 19.08276413 -18.5 21.6875 C-20.28323382 23.45569294 -22.06579492 25.2245646 -23.84765625 26.99414062 C-28.22398671 31.33734147 -32.60876374 35.67187321 -37 40 C-37.66 39.67 -38.32 39.34 -39 39 C-37.38405168 36.95880212 -35.7143618 34.95927063 -34 33 C-33.34 33 -32.68 33 -32 33 C-32 32.34 -32 31.68 -32 31 C-30.63671875 29.66015625 -30.63671875 29.66015625 -28.6875 28.0625 C-25.00718715 24.93522164 -21.53930917 21.66092028 -18.125 18.25 C-17.19945312 17.32703125 -16.27390625 16.4040625 -15.3203125 15.453125 C-12.89923425 13.03168325 -12.89923425 13.03168325 -11 10 C-10.34 10 -9.68 10 -9 10 C-8.67 9.01 -8.34 8.02 -8 7 C-6.15234375 5.17578125 -6.15234375 5.17578125 -3.9375 3.3125 C-2.83728516 2.37857422 -2.83728516 2.37857422 -1.71484375 1.42578125 C-1.14894531 0.95527344 -0.58304687 0.48476562 0 0 Z " fill="#7F7F7F" transform="translate(290,165)"/>
<path d="M0 0 C0 3 0 3 -2.01953125 5.36010742 C-3.40205078 6.71906128 -3.40205078 6.71906128 -4.8125 8.10546875 C-5.30081299 8.5895369 -5.78912598 9.07360504 -6.29223633 9.57234192 C-7.85459826 11.1179014 -9.42706327 12.65271107 -11 14.1875 C-12.06057762 15.23303282 -13.12048229 16.27924873 -14.1796875 17.32617188 C-16.77869434 19.89208902 -19.3868639 22.44846467 -22 25 C-22.66 24.67 -23.32 24.34 -24 24 C-5.31225296 3.54150198 -5.31225296 3.54150198 0 0 Z " fill="#616161" transform="translate(344,209)"/>
<path d="M0 0 C0 3 0 3 -2.01953125 5.36010742 C-3.40205078 6.71906128 -3.40205078 6.71906128 -4.8125 8.10546875 C-5.30081299 8.5895369 -5.78912598 9.07360504 -6.29223633 9.57234192 C-7.85459826 11.1179014 -9.42706327 12.65271107 -11 14.1875 C-12.06057762 15.23303282 -13.12048229 16.27924873 -14.1796875 17.32617188 C-16.77869434 19.89208902 -19.3868639 22.44846467 -22 25 C-22.66 24.67 -23.32 24.34 -24 24 C-5.31225296 3.54150198 -5.31225296 3.54150198 0 0 Z " fill="#595959" transform="translate(371,182)"/>
<path d="M0 0 C0.99 0.33 1.98 0.66 3 1 C-4.26 8.26 -11.52 15.52 -19 23 C-19.66 22.67 -20.32 22.34 -21 22 C-14.18743405 14.46214186 -7.25703551 7.11535803 0 0 Z " fill="#4D4D4D" transform="translate(288,371)"/>
<path d="M0 0 C3.83605489 1.58363082 6.28445649 4.02614122 9.203125 6.9375 C9.6857782 7.41823975 10.1684314 7.89897949 10.66571045 8.39428711 C11.67999064 9.40721093 12.69176804 10.42264638 13.70117188 11.44042969 C15.25171972 13.00173165 16.81270503 14.55202497 18.375 16.1015625 C19.36001734 17.08790061 20.34441453 18.0748585 21.328125 19.0625 C22.67245605 20.41021484 22.67245605 20.41021484 24.04394531 21.78515625 C26 24 26 24 26 26 C22.90429953 24.63720049 20.94693013 23.13402918 18.6875 20.62890625 C18.08679688 19.97212891 17.48609375 19.31535156 16.8671875 18.63867188 C16.25101563 17.95353516 15.63484375 17.26839844 15 16.5625 C13.7738956 15.20685946 12.54481712 13.85390173 11.3125 12.50390625 C10.50232422 11.60393921 10.50232422 11.60393921 9.67578125 10.68579102 C8.00127383 8.91015526 8.00127383 8.91015526 5.79296875 7.40600586 C4.90544922 6.71003296 4.90544922 6.71003296 4 6 C4 5.34 4 4.68 4 4 C2.68 3.34 1.36 2.68 0 2 C0 1.34 0 0.68 0 0 Z " fill="#2B2B2B" transform="translate(223,384)"/>
<path d="M0 0 C4.84611961 2.52440451 8.32772019 6.02975455 12.125 9.875 C12.74503906 10.48730469 13.36507813 11.09960938 14.00390625 11.73046875 C17.20154117 14.94185694 19.885069 17.93994997 22 22 C18.56394819 20.51770549 16.31298409 18.5704826 13.671875 15.9375 C12.87265625 15.14085937 12.0734375 14.34421875 11.25 13.5234375 C10.425 12.69070312 9.6 11.85796875 8.75 11 C7.90953125 10.16726562 7.0690625 9.33453125 6.203125 8.4765625 C5.4090625 7.67992187 4.615 6.88328125 3.796875 6.0625 C2.70391113 4.96615234 2.70391113 4.96615234 1.58886719 3.84765625 C0 2 0 2 0 0 Z " fill="#464646" transform="translate(260,213)"/>
<path d="M0 0 C0.66 0.66 1.32 1.32 2 2 C-3.94 7.94 -9.88 13.88 -16 20 C-16.66 19.34 -17.32 18.68 -18 18 C-12.06 12.06 -6.12 6.12 0 0 Z " fill="#444444" transform="translate(341,318)"/>
<path d="M0 0 C0 3 0 3 -2.29492188 5.63549805 C-3.3451977 6.6852984 -4.40374234 7.72686669 -5.46875 8.76171875 C-6.02365112 9.31237503 -6.57855225 9.86303131 -7.15026855 10.43037415 C-8.92660687 12.18990125 -10.7130848 13.93872165 -12.5 15.6875 C-13.70510885 16.87756521 -14.90954483 18.06831223 -16.11328125 19.25976562 C-19.06776708 22.18114979 -22.03138969 25.09297256 -25 28 C-25 25 -25 25 -23.6105957 23.27001953 C-22.97210693 22.64724121 -22.33361816 22.02446289 -21.67578125 21.3828125 C-20.62680664 20.34833984 -20.62680664 20.34833984 -19.55664062 19.29296875 C-18.81607422 18.57753906 -18.07550781 17.86210938 -17.3125 17.125 C-16.59126953 16.41730469 -15.87003906 15.70960937 -15.12695312 14.98046875 C-13.72201135 13.60247106 -12.31429474 12.2272957 -10.90356445 10.85522461 C-8.5805628 8.59121415 -6.28735432 6.2999684 -4 4 C-2.66666667 2.66666667 -1.33333333 1.33333333 0 0 Z " fill="#898989" transform="translate(389,81)"/>
<path d="M0 0 C3.88136584 0.55612455 5.62756918 2.27673138 8.328125 5.03515625 C9.52695313 6.24848633 9.52695313 6.24848633 10.75 7.48632812 C11.575 8.33646484 12.4 9.18660156 13.25 10.0625 C14.09046875 10.91650391 14.9309375 11.77050781 15.796875 12.65039062 C17.87147597 14.76035412 19.93875832 16.87699708 22 19 C21.67 19.99 21.34 20.98 21 22 C20.53102295 21.49549316 20.0620459 20.99098633 19.57885742 20.47119141 C17.45151952 18.18620469 15.31957413 15.90556769 13.1875 13.625 C12.44951172 12.8309375 11.71152344 12.036875 10.95117188 11.21875 C10.23896484 10.45820313 9.52675781 9.69765625 8.79296875 8.9140625 C7.81106567 7.8614624 7.81106567 7.8614624 6.80932617 6.78759766 C4.92523647 4.81279884 4.92523647 4.81279884 2 3 C2 2.34 2 1.68 2 1 C1.34 0.67 0.68 0.34 0 0 Z " fill="#282828" transform="translate(172,334)"/>
<path d="M0 0 C4.28642324 1.66463038 7.08617217 4.79075837 10.25 8 C10.80429688 8.5465625 11.35859375 9.093125 11.9296875 9.65625 C16 13.7466133 16 13.7466133 16 16 C11.71357676 14.33536962 8.91382783 11.20924163 5.75 8 C5.19570312 7.4534375 4.64140625 6.906875 4.0703125 6.34375 C0 2.2533867 0 2.2533867 0 0 Z " fill="#484848" transform="translate(234,189)"/>
<path d="M0 0 C3.05160609 1.37263363 5.24826932 2.95956573 7.671875 5.2578125 C8.33574219 5.88300781 8.99960938 6.50820313 9.68359375 7.15234375 C10.36550781 7.80332031 11.04742187 8.45429688 11.75 9.125 C12.44738281 9.78371094 13.14476562 10.44242187 13.86328125 11.12109375 C15.57950489 12.74327774 17.29153435 14.36965379 19 16 C18.34 16.66 17.68 17.32 17 18 C14.16266225 15.19151503 11.33081251 12.37756077 8.5 9.5625 C7.68917969 8.76005859 6.87835938 7.95761719 6.04296875 7.13085938 C5.27597656 6.36708984 4.50898438 5.60332031 3.71875 4.81640625 C3.00654297 4.10943604 2.29433594 3.40246582 1.56054688 2.67407227 C0 1 0 1 0 0 Z " fill="#565656" transform="translate(202,267)"/>
<path d="M0 0 C4.94779918 1.19946647 7.23590342 4.27613251 10.3515625 8.03125 C12.05761815 10.13623346 12.05761815 10.13623346 14.4375 12.375 C16 14 16 14 16 16 C11.71357676 14.33536962 8.91382783 11.20924163 5.75 8 C5.19570313 7.4534375 4.64140625 6.906875 4.0703125 6.34375 C0 2.2533867 0 2.2533867 0 0 Z " fill="#4D4D4D" transform="translate(284,237)"/>
<path d="M0 0 C0 3 0 3 -1.16162109 4.53393555 C-1.69352051 5.062854 -2.22541992 5.59177246 -2.7734375 6.13671875 C-3.3509375 6.71357422 -3.9284375 7.29042969 -4.5234375 7.88476562 C-5.13445312 8.47966797 -5.74546875 9.07457031 -6.375 9.6875 C-7.27992188 10.59725586 -7.27992188 10.59725586 -8.203125 11.52539062 C-12.73310075 16 -12.73310075 16 -15 16 C-12.08763079 9.30901843 -5.73040351 4.29780263 0 0 Z " fill="#464646" transform="translate(266,394)"/>
<path d="M0 0 C0.99 0.33 1.98 0.66 3 1 C-1.62 5.62 -6.24 10.24 -11 15 C-11.66 14.67 -12.32 14.34 -13 14 C-11.02108364 11.85393535 -9.04187901 9.70813786 -7.0625 7.5625 C-6.49853516 6.95083984 -5.93457031 6.33917969 -5.35351562 5.70898438 C-4.81533203 5.12568359 -4.27714844 4.54238281 -3.72265625 3.94140625 C-3.22515869 3.40201416 -2.72766113 2.86262207 -2.21508789 2.30688477 C-1.48918929 1.52614632 -0.75381738 0.75381738 0 0 Z " fill="#5C5C5C" transform="translate(386,166)"/>
<path d="M0 0 C6.07257886 2.81607503 10.97829176 6.95658352 14 13 C11 13 11 13 8.30078125 10.6640625 C7.29685338 9.65880492 6.3010225 8.64541032 5.3125 7.625 C4.80138672 7.11710938 4.29027344 6.60921875 3.76367188 6.0859375 C0 2.26699141 0 2.26699141 0 0 Z " fill="#5A5A5A" transform="translate(167,122)"/>
<path d="M0 0 C3.90285767 1.58667578 6.33520982 4.13350481 9.25 7.125 C10.14203125 8.03507812 11.0340625 8.94515625 11.953125 9.8828125 C12.62859375 10.58148438 13.3040625 11.28015625 14 12 C13.34 12.66 12.68 13.32 12 14 C9.99387601 12.04761147 7.99507567 10.08862178 6 8.125 C5.42765625 7.56941406 4.8553125 7.01382813 4.265625 6.44140625 C2.80549218 4.99865596 1.39850702 3.5025626 0 2 C0 1.34 0 0.68 0 0 Z " fill="#4C4C4C" transform="translate(154,109)"/>
<path d="M0 0 C0.66 0.33 1.32 0.66 2 1 C-2.62 5.62 -7.24 10.24 -12 15 C-12.99 14.67 -13.98 14.34 -15 14 C-13.71034824 12.62437146 -12.37310707 11.29233607 -11 10 C-10.34 10 -9.68 10 -9 10 C-8.67 9.01 -8.34 8.02 -8 7 C-6.15234375 5.17578125 -6.15234375 5.17578125 -3.9375 3.3125 C-2.83728516 2.37857422 -2.83728516 2.37857422 -1.71484375 1.42578125 C-1.14894531 0.95527344 -0.58304687 0.48476562 0 0 Z " fill="#5E5E5E" transform="translate(373,82)"/>
<path d="M0 0 C0 3 0 3 -2.40625 5.69921875 C-3.4299968 6.70302243 -4.4616054 7.69885649 -5.5 8.6875 C-6.02464844 9.19861328 -6.54929687 9.70972656 -7.08984375 10.23632812 C-8.38660904 11.49772708 -9.69246117 12.74977212 -11 14 C-11.66 13.67 -12.32 13.34 -13 13 C-12.34 12.01 -11.68 11.02 -11 10 C-10.34 10 -9.68 10 -9 10 C-8.67 9.01 -8.34 8.02 -8 7 C-6.15234375 5.17578125 -6.15234375 5.17578125 -3.9375 3.3125 C-2.83728516 2.37857422 -2.83728516 2.37857422 -1.71484375 1.42578125 C-1.14894531 0.95527344 -0.58304687 0.48476562 0 0 Z " fill="#868686" transform="translate(290,165)"/>
<path d="M0 0 C3.21524305 1.40844718 5.32183868 3.10344786 7.75 5.625 C8.67039063 6.57246094 8.67039063 6.57246094 9.609375 7.5390625 C10.29773438 8.26222656 10.29773438 8.26222656 11 9 C10.01 9.33 9.02 9.66 8 10 C6.66070495 8.71451591 5.32871357 7.42141845 4 6.125 C2.88625 5.04605469 2.88625 5.04605469 1.75 3.9453125 C0 2 0 2 0 0 Z " fill="#3A3A3A" transform="translate(137,298)"/>
<path d="M0 0 C4.50884026 2.31883213 6.93906776 5.06451569 10 9 C7 9 7 9 5.17578125 7.5390625 C4.56089844 6.90742188 3.94601562 6.27578125 3.3125 5.625 C2.68988281 4.99851563 2.06726563 4.37203125 1.42578125 3.7265625 C0 2 0 2 0 0 Z " fill="#4C4C4C" transform="translate(260,213)"/>
<path d="M0 0 C0 3 0 3 -1.53125 4.82421875 C-2.1809375 5.43910156 -2.830625 6.05398437 -3.5 6.6875 C-4.1496875 7.31011719 -4.799375 7.93273437 -5.46875 8.57421875 C-5.9740625 9.04472656 -6.479375 9.51523438 -7 10 C-7.99 9.67 -8.98 9.34 -10 9 C-8.71034824 7.62437146 -7.37310707 6.29233607 -6 5 C-5.34 5 -4.68 5 -4 5 C-3.67 4.01 -3.34 3.02 -3 2 C-2.01 1.34 -1.02 0.68 0 0 Z " fill="#6B6B6B" transform="translate(315,140)"/>
<path d="M0 0 C-1.55603771 3.81936528 -3.95604931 6.26044438 -7 9 C-7.66 9 -8.32 9 -9 9 C-7.45665977 5.21180126 -4.44676575 0 0 0 Z " fill="#2E2E2E" transform="translate(250,217)"/>
<path d="M0 0 C0.66 0 1.32 0 2 0 C3.7265625 1.75 3.7265625 1.75 5.625 4 C6.25664062 4.7425 6.88828125 5.485 7.5390625 6.25 C8.02117187 6.8275 8.50328125 7.405 9 8 C8.34 8.66 7.68 9.32 7 10 C5.82438854 8.90536178 4.6597511 7.79892814 3.5 6.6875 C2.52546875 5.76517578 2.52546875 5.76517578 1.53125 4.82421875 C0 3 0 3 0 0 Z " fill="#5F5F5F" transform="translate(202,156)"/>
<path d="M0 0 C-0.8125 1.9375 -0.8125 1.9375 -2 4 C-2.99 4.33 -3.98 4.66 -5 5 C-6.20882096 7.00016466 -6.20882096 7.00016466 -7 9 C-7.66 9 -8.32 9 -9 9 C-7.45665977 5.21180126 -4.44676575 0 0 0 Z " fill="#292929" transform="translate(324,337)"/>
<path d="M0 0 C-0.66 1.32 -1.32 2.64 -2 4 C-2.66 4 -3.32 4 -4 4 C-4.268125 4.639375 -4.53625 5.27875 -4.8125 5.9375 C-6 8 -6 8 -9 9 C-7.45665977 5.21180126 -4.44676575 0 0 0 Z " fill="#2E2E2E" transform="translate(351,310)"/>
<path d="M0 0 C0.33 0.99 0.66 1.98 1 3 C-0.98 4.98 -2.96 6.96 -5 9 C-5.99 8.67 -6.98 8.34 -8 8 C-6.37660195 6.29115995 -4.70680947 4.62553283 -3 3 C-2.34 3 -1.68 3 -1 3 C-0.67 2.01 -0.34 1.02 0 0 Z " fill="#727272" transform="translate(339,115)"/>
<path d="M0 0 C0.66 0.66 1.32 1.32 2 2 C0.02 3.98 -1.96 5.96 -4 8 C-4.99 7.67 -5.98 7.34 -7 7 C-4.69 4.69 -2.38 2.38 0 0 Z " fill="#787878" transform="translate(307,245)"/>
<path d="M0 0 C3.057952 1.73559438 5.63379989 3.38472619 8 6 C7.67 6.99 7.34 7.98 7 9 C5.82737096 7.88121617 4.66204862 6.75476949 3.5 5.625 C2.8503125 4.99851562 2.200625 4.37203125 1.53125 3.7265625 C0 2 0 2 0 0 Z " fill="#4C4C4C" transform="translate(127,82)"/>
<path d="M0 0 C0.99 0.33 1.98 0.66 3 1 C1.02 2.98 -0.96 4.96 -3 7 C-3.99 6.67 -4.98 6.34 -6 6 C-4.02 4.02 -2.04 2.04 0 0 Z " fill="#585858" transform="translate(288,371)"/>
<path d="M0 0 C0 3 0 3 -1.53125 4.82421875 C-2.1809375 5.43910156 -2.830625 6.05398437 -3.5 6.6875 C-4.1496875 7.31011719 -4.799375 7.93273437 -5.46875 8.57421875 C-5.9740625 9.04472656 -6.479375 9.51523438 -7 10 C-7.66 9.67 -8.32 9.34 -9 9 C-6 6 -3 3 0 0 Z " fill="#797979" transform="translate(389,81)"/>
<path d="M0 0 C0.33 0.99 0.66 1.98 1 3 C-0.98 4.98 -2.96 6.96 -5 9 C-5.66 8.67 -6.32 8.34 -7 8 C-4.69 5.36 -2.38 2.72 0 0 Z " fill="#424242" transform="translate(274,385)"/>
<path d="M0 0 C0.33 0.99 0.66 1.98 1 3 C-0.98 4.98 -2.96 6.96 -5 9 C-5.66 8.67 -6.32 8.34 -7 8 C-4.69 5.36 -2.38 2.72 0 0 Z " fill="#4E4E4E" transform="translate(327,225)"/>
<path d="M0 0 C0.66 0 1.32 0 2 0 C0.44499019 3.81684226 -2.03595495 6.19195732 -5 9 C-5.66 8.67 -6.32 8.34 -7 8 C-5.88200014 6.66079162 -4.75538103 5.32877444 -3.625 4 C-2.68527344 2.88625 -2.68527344 2.88625 -1.7265625 1.75 C-1.15679687 1.1725 -0.58703125 0.595 0 0 Z " fill="#636363" transform="translate(276,193)"/>
<path d="M0 0 C0.33 0.99 0.66 1.98 1 3 C-0.98 4.98 -2.96 6.96 -5 9 C-5.66 8.67 -6.32 8.34 -7 8 C-4.69 5.36 -2.38 2.72 0 0 Z " fill="#434343" transform="translate(380,172)"/>
<path d="M0 0 C0 3 0 3 -2.5 5.6875 C-3.325 6.450625 -4.15 7.21375 -5 8 C-5.99 7.67 -6.98 7.34 -8 7 C-5.36 4.69 -2.72 2.38 0 0 Z " fill="#323232" transform="translate(359,217)"/>
<path d="M0 0 C0 3 0 3 -1.3125 4.38671875 C-2.875 5.59114583 -4.4375 6.79557292 -6 8 C-5.65120368 4.74456771 -4.97866739 3.98126893 -2.4375 1.75 C-1.633125 1.1725 -0.82875 0.595 0 0 Z " fill="#5A5A5A" transform="translate(344,209)"/>
<path d="M0 0 C3.36720387 1.39332574 4.9859524 2.9789286 7 6 C4 6 4 6 1.8125 4.125 C0 2 0 2 0 0 Z " fill="#474747" transform="translate(210,165)"/>
<path d="M0 0 C-1.39332574 3.36720387 -2.9789286 4.9859524 -6 7 C-5.37162381 3.35541809 -4.14650034 0 0 0 Z " fill="#3E3E3E" transform="translate(307,354)"/>
</svg>
